<?xml version="1.0" encoding="UTF-8" standalone="no"?>
<!-- Created with Inkscape (http://www.inkscape.org/) -->

<svg
   version="1.1"
   id="svg2"
   width="883.21332"
   height="569.64001"
   viewBox="0 0 883.21332 569.64001"
   sodipodi:docname="2895106.eps"
   xmlns:inkscape="http://www.inkscape.org/namespaces/inkscape"
   xmlns:sodipodi="http://sodipodi.sourceforge.net/DTD/sodipodi-0.dtd"
   xmlns="http://www.w3.org/2000/svg"
   xmlns:svg="http://www.w3.org/2000/svg">
  <defs
     id="defs6" />
  <sodipodi:namedview
     id="namedview4"
     pagecolor="#ffffff"
     bordercolor="#000000"
     borderopacity="0.25"
     inkscape:showpageshadow="2"
     inkscape:pageopacity="0.0"
     inkscape:pagecheckerboard="0"
     inkscape:deskcolor="#d1d1d1" />
  <g
     id="g8"
     inkscape:groupmode="layer"
     inkscape:label="ink_ext_XXXXXX"
     transform="matrix(1.3333333,0,0,-1.3333333,0,569.64)">
    <g
       id="g10"
       transform="scale(0.1)">
      <path
         d="m 4298.26,3923.72 114.31,-292.44 -71.06,0.32 -56.95,179.72 13.7,112.4"
         style="fill:#dadbd8;fill-opacity:1;fill-rule:nonzero;stroke:none"
         id="path12" />
      <path
         d="m 3907.9,4193.93 -39.29,-560.33 405.67,-8.47 45.66,568.8 H 3907.9"
         style="fill:#e7e8e5;fill-opacity:1;fill-rule:nonzero;stroke:none"
         id="path14" />
      <path
         d="m 3948.49,4148.8 -32.71,-466.39 301.58,-14.12 42.13,483.28 -311,-2.77"
         style="fill:#fafaf9;fill-opacity:1;fill-rule:nonzero;stroke:none"
         id="path16" />
      <path
         d="m 4014.66,4082.86 -24.46,-327.85 h 166.36 l 29.35,327.85 h -171.25"
         style="fill:#dadbd8;fill-opacity:1;fill-rule:nonzero;stroke:none"
         id="path18" />
      <path
         d="m 3507.8,3630.08 v 280.54 h 205.44 V 3630.3 l -205.44,-0.22"
         style="fill:#e7e8e5;fill-opacity:1;fill-rule:nonzero;stroke:none"
         id="path20" />
      <path
         d="m 3624.6,3910.62 c 0,0 49.56,362.22 35.67,361.71 -13.89,-0.5 -48.75,-330.24 -48.75,-330.24 0,0 -1.46,273.09 -14.52,271.64 -13.08,-1.46 0,-289.07 0,-289.07 0,0 -22.34,233.41 -34.41,227.83 -12.08,-5.58 5.18,-241.87 5.18,-241.87 h 56.83"
         style="fill:#dadbd8;fill-opacity:1;fill-rule:nonzero;stroke:none"
         id="path22" />
      <path
         d="m 3587.25,3910.62 c 0,0 17.17,180.54 22.83,168.19 5.67,-12.34 0,-107.47 0,-107.47 0,0 47.57,233.29 60.03,225.36 12.46,-7.93 -48.69,-253.21 -48.69,-253.21 0,0 46.43,140.03 56.62,125.28 10.19,-14.76 -38.51,-146.13 -38.51,-146.13 0,0 49.83,92.86 53.23,80.41 3.4,-12.46 -23.78,-92.43 -23.78,-92.43 h -81.73"
         style="fill:#e7e8e5;fill-opacity:1;fill-rule:nonzero;stroke:none"
         id="path24" />
      <path
         d="m 3557.97,3909.53 c 0,0 -109.85,215.64 -96.26,208.96 13.59,-6.68 83.81,-145.98 83.81,-145.98 0,0 -46.47,134.45 -36.26,138.58 10.21,4.11 61.18,-151.04 61.18,-151.04 l 11.43,-50.52 h -23.9"
         style="fill:#f3f2f1;fill-opacity:1;fill-rule:nonzero;stroke:none"
         id="path26" />
      <path
         d="m 3602.89,3910.15 5.19,-280.53 h -97.67 l -1.89,281.47 94.37,-0.94"
         style="fill:#dadbd8;fill-opacity:1;fill-rule:nonzero;stroke:none"
         id="path28" />
      <path
         d="m 3508.02,3885.86 94.61,-1.57 110.61,1.57 3.46,26.81 h -211.36 l 2.68,-26.81"
         style="fill:#dadbd8;fill-opacity:1;fill-rule:nonzero;stroke:none"
         id="path30" />
      <path
         d="M 4738.16,3563.82 H 3299.83 v 74.08 h 1438.33 v -74.08"
         style="fill:#dadbd8;fill-opacity:1;fill-rule:nonzero;stroke:none"
         id="path32" />
      <path
         d="M 1045.53,2394.53 1066.28,54.8086 H 139.473 V 2362.63 l 906.057,31.9"
         style="fill:#f3f2f1;fill-opacity:1;fill-rule:nonzero;stroke:none"
         id="path34" />
      <path
         d="M 546.23,2376.95 554.43,54.8086 H 139.473 V 2362.63 l 406.757,14.32"
         style="fill:#dadbd8;fill-opacity:1;fill-rule:nonzero;stroke:none"
         id="path36" />
      <path
         d="M 1016.4,2365.67 V 2037.71 H 577.387 v 312.47 l 439.013,15.49"
         style="fill:#dadbd8;fill-opacity:1;fill-rule:nonzero;stroke:none"
         id="path38" />
      <path
         d="m 865.055,2275.45 v -48.44 H 730.742 v 52.84 l 134.313,-4.4"
         style="fill:#f3f2f1;fill-opacity:1;fill-rule:nonzero;stroke:none"
         id="path40" />
      <path
         d="m 865.055,2166.46 v 19.82 H 726.34 v -19.82 h 138.715"
         style="fill:#f3f2f1;fill-opacity:1;fill-rule:nonzero;stroke:none"
         id="path42" />
      <path
         d="M 1016.4,1216.42 V 888.449 H 577.387 v 312.461 l 439.013,15.51"
         style="fill:#dadbd8;fill-opacity:1;fill-rule:nonzero;stroke:none"
         id="path44" />
      <path
         d="m 865.055,1126.19 v -48.44 H 730.742 v 52.84 l 134.313,-4.4"
         style="fill:#f3f2f1;fill-opacity:1;fill-rule:nonzero;stroke:none"
         id="path46" />
      <path
         d="m 865.055,1017.2 v 19.81 H 726.34 v -19.81 h 138.715"
         style="fill:#f3f2f1;fill-opacity:1;fill-rule:nonzero;stroke:none"
         id="path48" />
      <path
         d="M 1016.4,1995.96 V 1668 H 577.387 v 312.46 l 439.013,15.5"
         style="fill:#dadbd8;fill-opacity:1;fill-rule:nonzero;stroke:none"
         id="path50" />
      <path
         d="M 865.055,1905.73 V 1857.3 H 730.742 v 52.84 l 134.313,-4.41"
         style="fill:#f3f2f1;fill-opacity:1;fill-rule:nonzero;stroke:none"
         id="path52" />
      <path
         d="m 865.055,1796.74 v 19.81 H 726.34 v -19.81 h 138.715"
         style="fill:#f3f2f1;fill-opacity:1;fill-rule:nonzero;stroke:none"
         id="path54" />
      <path
         d="M 1016.4,846.77 V 518.809 H 577.387 V 831.281 L 1016.4,846.77"
         style="fill:#dadbd8;fill-opacity:1;fill-rule:nonzero;stroke:none"
         id="path56" />
      <path
         d="m 865.055,756.539 v -48.43 H 730.742 v 52.84 l 134.313,-4.41"
         style="fill:#f3f2f1;fill-opacity:1;fill-rule:nonzero;stroke:none"
         id="path58" />
      <path
         d="m 865.055,647.559 v 19.812 H 726.34 v -19.812 h 138.715"
         style="fill:#f3f2f1;fill-opacity:1;fill-rule:nonzero;stroke:none"
         id="path60" />
      <path
         d="M 1021.12,477.129 V 149.172 H 582.121 v 312.469 l 438.999,15.488"
         style="fill:#dadbd8;fill-opacity:1;fill-rule:nonzero;stroke:none"
         id="path62" />
      <path
         d="M 869.781,386.91 V 338.469 H 735.469 v 52.851 l 134.312,-4.41"
         style="fill:#f3f2f1;fill-opacity:1;fill-rule:nonzero;stroke:none"
         id="path64" />
      <path
         d="m 869.781,277.922 v 19.816 H 731.066 v -19.816 h 138.715"
         style="fill:#f3f2f1;fill-opacity:1;fill-rule:nonzero;stroke:none"
         id="path66" />
      <path
         d="M 1022.12,1603.27 V 1275.31 H 583.109 v 327.96 h 439.011"
         style="fill:#dadbd8;fill-opacity:1;fill-rule:nonzero;stroke:none"
         id="path68" />
      <path
         d="m 867.813,1455.47 v -45.55 h -126.25 v 49.68 l 126.25,-4.13"
         style="fill:#f3f2f1;fill-opacity:1;fill-rule:nonzero;stroke:none"
         id="path70" />
      <path
         d="m 867.813,1353.02 v 18.62 H 737.418 v -18.62 h 130.395"
         style="fill:#f3f2f1;fill-opacity:1;fill-rule:nonzero;stroke:none"
         id="path72" />
      <path
         d="M 3751.33,340.262 V 54.3789 h 879.15 V 340.262 h -879.15"
         style="fill:#f3f2f1;fill-opacity:1;fill-rule:nonzero;stroke:none"
         id="path74" />
      <path
         d="m 3714.45,420.18 v -79.918 h 946.78 v 79.918 h -491.84 -454.94"
         style="fill:#dadbd8;fill-opacity:1;fill-rule:nonzero;stroke:none"
         id="path76" />
      <path
         d="m 4187.84,54.3789 h 442.64 V 340.262 h 30.75 v 79.918 h -491.84 v -72.532 l 18.45,-293.2691"
         style="fill:#dadbd8;fill-opacity:1;fill-rule:nonzero;stroke:none"
         id="path78" />
      <path
         d="m 3874.29,294.148 v -43.027 h 178.28 v 43.027 h -178.28"
         style="fill:#dadbd8;fill-opacity:1;fill-rule:nonzero;stroke:none"
         id="path80" />
      <path
         d="m 4080.28,106.461 h -228.94 v 90.871 h 228.94 v -90.871"
         style="fill:#ffffff;fill-opacity:1;fill-rule:nonzero;stroke:none"
         id="path82" />
      <path
         d="M 4887.18,706.059 V 420.18 h 879.15 v 285.879 h -879.15"
         style="fill:#f3f2f1;fill-opacity:1;fill-rule:nonzero;stroke:none"
         id="path84" />
      <path
         d="m 4850.29,785.988 v -79.929 h 946.79 v 79.929 h -491.84 -454.95"
         style="fill:#dadbd8;fill-opacity:1;fill-rule:nonzero;stroke:none"
         id="path86" />
      <path
         d="m 5323.69,420.18 h 442.64 v 285.879 h 30.75 v 79.929 h -491.84 v -72.539 l 18.45,-293.269"
         style="fill:#dadbd8;fill-opacity:1;fill-rule:nonzero;stroke:none"
         id="path88" />
      <path
         d="M 5010.13,659.949 V 616.93 h 178.29 v 43.019 h -178.29"
         style="fill:#dadbd8;fill-opacity:1;fill-rule:nonzero;stroke:none"
         id="path90" />
      <path
         d="m 5216.13,472.262 h -228.94 v 90.867 h 228.94 v -90.867"
         style="fill:#ffffff;fill-opacity:1;fill-rule:nonzero;stroke:none"
         id="path92" />
      <path
         d="M 4845.08,340.262 V 54.3789 h 879.16 V 340.262 h -879.16"
         style="fill:#f3f2f1;fill-opacity:1;fill-rule:nonzero;stroke:none"
         id="path94" />
      <path
         d="m 4808.2,420.18 v -79.918 h 946.78 V 420.18 H 5263.14 4808.2"
         style="fill:#dadbd8;fill-opacity:1;fill-rule:nonzero;stroke:none"
         id="path96" />
      <path
         d="m 5281.59,54.3789 h 442.65 V 340.262 h 30.74 v 79.918 h -491.84 v -72.532 l 18.45,-293.2691"
         style="fill:#dadbd8;fill-opacity:1;fill-rule:nonzero;stroke:none"
         id="path98" />
      <path
         d="m 4968.04,294.148 v -43.027 h 178.29 v 43.027 h -178.29"
         style="fill:#dadbd8;fill-opacity:1;fill-rule:nonzero;stroke:none"
         id="path100" />
      <path
         d="m 4945.09,106.461 h 228.941 v 90.8711 H 4945.09 Z"
         style="fill:#ffffff;fill-opacity:1;fill-rule:nonzero;stroke:none"
         id="path102" />
      <path
         d="M 5711.83,2395.74 5691.08,56.0195 h 926.81 V 2363.84 l -906.06,31.9"
         style="fill:#f3f2f1;fill-opacity:1;fill-rule:nonzero;stroke:none"
         id="path104" />
      <path
         d="m 6211.13,2378.16 -8.2,-2322.1405 h 414.96 V 2363.84 l -406.76,14.32"
         style="fill:#dadbd8;fill-opacity:1;fill-rule:nonzero;stroke:none"
         id="path106" />
      <path
         d="m 5740.96,2366.88 v -327.96 h 439.01 v 312.46 l -439.01,15.5"
         style="fill:#dadbd8;fill-opacity:1;fill-rule:nonzero;stroke:none"
         id="path108" />
      <path
         d="m 5892.3,2276.66 v -48.45 h 134.32 v 52.85 l -134.32,-4.4"
         style="fill:#f3f2f1;fill-opacity:1;fill-rule:nonzero;stroke:none"
         id="path110" />
      <path
         d="m 5892.3,2167.67 v 19.81 h 138.72 v -19.81 H 5892.3"
         style="fill:#f3f2f1;fill-opacity:1;fill-rule:nonzero;stroke:none"
         id="path112" />
      <path
         d="M 5740.96,1217.63 V 889.66 h 439.01 v 312.46 l -439.01,15.51"
         style="fill:#dadbd8;fill-opacity:1;fill-rule:nonzero;stroke:none"
         id="path114" />
      <path
         d="m 5892.3,1127.4 v -48.44 h 134.32 v 52.84 l -134.32,-4.4"
         style="fill:#f3f2f1;fill-opacity:1;fill-rule:nonzero;stroke:none"
         id="path116" />
      <path
         d="m 5892.3,1018.41 v 19.81 h 138.72 v -19.81 H 5892.3"
         style="fill:#f3f2f1;fill-opacity:1;fill-rule:nonzero;stroke:none"
         id="path118" />
      <path
         d="m 5740.96,1997.17 v -327.96 h 439.01 v 312.46 l -439.01,15.5"
         style="fill:#dadbd8;fill-opacity:1;fill-rule:nonzero;stroke:none"
         id="path120" />
      <path
         d="m 5892.3,1906.95 v -48.45 h 134.32 v 52.85 l -134.32,-4.4"
         style="fill:#f3f2f1;fill-opacity:1;fill-rule:nonzero;stroke:none"
         id="path122" />
      <path
         d="m 5892.3,1797.95 v 19.82 h 138.72 v -19.82 H 5892.3"
         style="fill:#f3f2f1;fill-opacity:1;fill-rule:nonzero;stroke:none"
         id="path124" />
      <path
         d="M 5740.96,847.98 V 520.012 h 439.01 V 832.48 l -439.01,15.5"
         style="fill:#dadbd8;fill-opacity:1;fill-rule:nonzero;stroke:none"
         id="path126" />
      <path
         d="M 5892.3,757.762 V 709.32 h 134.32 v 52.84 l -134.32,-4.398"
         style="fill:#f3f2f1;fill-opacity:1;fill-rule:nonzero;stroke:none"
         id="path128" />
      <path
         d="m 5892.3,648.77 v 19.82 h 138.72 V 648.77 H 5892.3"
         style="fill:#f3f2f1;fill-opacity:1;fill-rule:nonzero;stroke:none"
         id="path130" />
      <path
         d="M 5736.24,478.34 V 150.379 h 439 V 462.84 l -439,15.5"
         style="fill:#dadbd8;fill-opacity:1;fill-rule:nonzero;stroke:none"
         id="path132" />
      <path
         d="M 5887.57,388.121 V 339.68 h 134.32 v 52.84 l -134.32,-4.399"
         style="fill:#f3f2f1;fill-opacity:1;fill-rule:nonzero;stroke:none"
         id="path134" />
      <path
         d="m 5887.57,279.129 v 19.82 h 138.73 v -19.82 h -138.73"
         style="fill:#f3f2f1;fill-opacity:1;fill-rule:nonzero;stroke:none"
         id="path136" />
      <path
         d="m 5735.24,1604.48 v -327.95 h 439 v 327.95 h -439"
         style="fill:#dadbd8;fill-opacity:1;fill-rule:nonzero;stroke:none"
         id="path138" />
      <path
         d="m 5889.55,1456.67 v -45.54 h 126.25 v 49.67 l -126.25,-4.13"
         style="fill:#f3f2f1;fill-opacity:1;fill-rule:nonzero;stroke:none"
         id="path140" />
      <path
         d="m 5889.55,1354.22 v 18.63 h 130.39 v -18.63 h -130.39"
         style="fill:#f3f2f1;fill-opacity:1;fill-rule:nonzero;stroke:none"
         id="path142" />
      <path
         d="M 6624.12,54.6914 C 6624.12,53.25 5141.14,52.082 3312.22,52.082 1482.66,52.082 0,53.25 0,54.6914 c 0,1.4375 1482.66,2.5977 3312.22,2.5977 1828.92,0 3311.9,-1.1602 3311.9,-2.5977"
         style="fill:#17282f;fill-opacity:1;fill-rule:nonzero;stroke:none"
         id="path144" />
      <path
         d="m 1972.74,2743.17 70.61,-1203.9 c 2.51,-42.89 37.96,-76.42 80.92,-76.54 l 2166.94,-6.61 c 44.9,-0.14 81.4,36.15 81.55,81.05 l 2.85,937.36 c 0.14,45.11 -36.47,81.7 -81.58,81.55 l -1332.66,-4.52 c -21.54,-0.07 -42.22,8.4 -57.51,23.55 l -230.92,228.86 c -15.17,15.02 -35.63,23.48 -56.98,23.55 l -561.81,1.71 c -46.87,0.15 -84.16,-39.27 -81.41,-86.06"
         style="fill:#f03d5f;fill-opacity:1;fill-rule:nonzero;stroke:none"
         id="path146" />
      <path
         d="m 4291.46,1456.12 c -0.08,0 -0.17,0 -0.25,0 l -2166.94,6.61 c -42.96,0.12 -78.41,33.65 -80.92,76.54 l -70.61,1203.9 c -0.1,1.64 -0.14,3.27 -0.14,4.9 0.02,44.53 36.18,81.16 81.29,81.16 0.08,0 0.18,0 0.26,0 l 561.81,-1.71 c 21.35,-0.07 41.81,-8.53 56.98,-23.55 l 230.92,-228.86 c 15.23,-15.09 35.8,-23.55 57.23,-23.55 0.09,0 0.19,0 0.28,0 l 1332.66,4.52 c 0.1,0 0.19,0 0.29,0 44.88,0 81.28,-36.4 81.29,-81.29 0,-0.09 0,-0.17 0,-0.26 l -2.85,-937.36 c -0.15,-44.82 -36.51,-81.05 -81.3,-81.05"
         style="fill:#ba2c42;fill-opacity:1;fill-rule:nonzero;stroke:none"
         id="path148" />
      <path
         d="m 2709.94,3281.88 747.87,-569.69 -712.59,-935.45 -747.87,569.69 712.59,935.45"
         style="fill:#ffffff;fill-opacity:1;fill-rule:nonzero;stroke:none"
         id="path150" />
      <path
         d="m 2709.94,3281.88 c 0,0 -1.12,-1.61 -3.33,-4.58 -2.28,-3.05 -5.56,-7.43 -9.86,-13.18 -8.79,-11.63 -21.68,-28.71 -38.45,-50.93 -33.71,-44.48 -82.94,-109.45 -145.35,-191.83 -124.93,-164.46 -302.56,-398.33 -513.74,-676.34 l -0.44,3.26 c 222.63,-169.48 477.87,-363.8 747.94,-569.41 l 0.09,-0.06 -3.65,-0.49 c 263.94,346.22 509.23,667.99 712.93,935.18 l 0.41,-3.03 c -225.01,171.99 -411.53,314.55 -541.89,414.2 -65.17,49.94 -116.27,89.11 -151.2,115.87 -17.37,13.38 -30.7,23.63 -39.79,30.63 -9,6.96 -13.67,10.71 -13.67,10.71 0,0 4.6,-3.31 13.59,-10.05 9.08,-6.85 22.4,-16.89 39.77,-29.98 34.99,-26.5 86.19,-65.27 151.48,-114.7 130.95,-99.41 318.31,-241.65 544.34,-413.24 l 1.72,-1.31 -1.31,-1.72 c -203.5,-267.35 -448.55,-589.3 -712.24,-935.72 l -1.58,-2.07 -2.07,1.58 -0.08,0.06 c -269.96,205.77 -525.08,400.23 -747.62,569.85 l -1.86,1.41 1.42,1.85 c 212.32,277.93 390.91,511.72 516.51,676.14 62.7,81.87 112.16,146.44 146.01,190.65 16.85,21.91 29.8,38.76 38.62,50.24 4.33,5.58 7.63,9.84 9.92,12.8 2.23,2.85 3.38,4.21 3.38,4.21"
         style="fill:#17282f;fill-opacity:1;fill-rule:nonzero;stroke:none"
         id="path152" />
      <path
         d="m 2722.71,1844.86 662.52,869.72 -653.71,497.97 -662.52,-869.73 653.71,-497.96"
         style="fill:#17282f;fill-opacity:1;fill-rule:nonzero;stroke:none"
         id="path154" />
      <path
         d="m 2722.71,1834.56 -174.94,613.31 397.56,-5.49 -38.68,231.16 478.58,30.75 -662.52,-869.73"
         style="fill:#33535f;fill-opacity:1;fill-rule:nonzero;stroke:none"
         id="path156" />
      <path
         d="m 2702.18,2764.13 c 37.83,-28.82 45.13,-82.83 16.32,-120.65 -28.81,-37.82 -82.83,-45.12 -120.65,-16.32 -37.82,28.82 -45.12,82.83 -16.31,120.65 28.81,37.82 82.82,45.13 120.64,16.32"
         style="fill:#33535f;fill-opacity:1;fill-rule:nonzero;stroke:none"
         id="path158" />
      <path
         d="m 4503.27,3224.88 -53.78,-1307.42 -1635.36,67.28 53.79,1307.42 1635.35,-67.28"
         style="fill:#ffffff;fill-opacity:1;fill-rule:nonzero;stroke:none"
         id="path160" />
      <path
         d="m 4503.27,3224.88 c 0,0 -2.68,0.03 -7.83,0.2 -5.2,0.18 -12.83,0.44 -22.84,0.8 -20.17,0.77 -49.94,1.9 -88.67,3.37 -77.52,3.05 -190.88,7.5 -334.61,13.14 -287.23,11.54 -695.8,27.94 -1181.5,47.44 l 2.42,2.23 c -15.92,-389.11 -34.18,-835.23 -53.5,-1307.28 l -0.01,-0.15 -2.49,2.71 c 605.44,-25.07 1168.12,-48.36 1635.34,-67.71 l -2.26,-2.08 c 16.68,394 30.5,720.58 40.16,948.75 4.94,114.18 8.8,203.71 11.45,264.8 1.36,30.5 2.4,53.88 3.12,69.74 0.72,15.79 1.22,24.04 1.22,24.04 0,0 -0.17,-7.94 -0.74,-23.6 -0.58,-15.77 -1.46,-39.02 -2.59,-69.35 -2.39,-60.99 -5.87,-150.37 -10.33,-264.35 -9.13,-228.53 -22.19,-555.6 -37.96,-950.2 l -0.08,-2.16 -2.17,0.08 c -467.23,19.1 -1029.91,42.09 -1635.37,66.84 l -2.61,0.11 0.11,2.6 0.01,0.14 c 19.52,472.05 37.96,918.16 54.05,1307.26 l 0.09,2.34 2.33,-0.1 c 486.28,-20.48 895.34,-37.72 1182.91,-49.83 143.49,-6.17 256.65,-11.04 334.04,-14.36 38.52,-1.7 68.12,-3.02 88.18,-3.91 9.9,-0.46 17.43,-0.82 22.59,-1.06 5.05,-0.25 7.54,-0.45 7.54,-0.45"
         style="fill:#17282f;fill-opacity:1;fill-rule:nonzero;stroke:none"
         id="path162" />
      <path
         d="m 2873.9,2064.73 1520.46,-62.55 47.01,1142.81 -1520.46,62.55 -47.01,-1142.81"
         style="fill:#33535f;fill-opacity:1;fill-rule:nonzero;stroke:none"
         id="path164" />
      <path
         d="m 2873.9,2064.73 560.28,688.51 310.68,-457.96 232.89,228.4 416.61,-521.5 -1520.46,62.55"
         style="fill:#17282f;fill-opacity:1;fill-rule:nonzero;stroke:none"
         id="path166" />
      <path
         d="m 3906.36,2820.98 c -2.71,-66.12 -58.51,-117.51 -124.64,-114.79 -66.12,2.72 -117.51,58.52 -114.79,124.64 2.72,66.12 58.52,117.51 124.64,114.79 66.12,-2.72 117.52,-58.52 114.79,-124.64"
         style="fill:#17282f;fill-opacity:1;fill-rule:nonzero;stroke:none"
         id="path168" />
      <path
         d="M 4582.43,2662.88 2367.23,2357.87 2601.79,735.441 4798.86,1044.93 4582.43,2662.88"
         style="fill:#e7e8e5;fill-opacity:1;fill-rule:nonzero;stroke:none"
         id="path170" />
      <path
         d="M 4590.89,2865.27 2401.34,2411.42 2744.9,808.52 4916.07,1265.63 4590.89,2865.27"
         style="fill:#dadbd8;fill-opacity:1;fill-rule:nonzero;stroke:none"
         id="path172" />
      <path
         d="M 4397.57,3045.13 2288.23,2302.98 2842.74,760.301 4933.43,1503.23 4397.57,3045.13"
         style="fill:#ffffff;fill-opacity:1;fill-rule:nonzero;stroke:none"
         id="path174" />
      <path
         d="m 4397.57,3045.13 c 5.78,-16.54 212.02,-607.5 537.87,-1541.2 l 0.69,-1.99 -1.99,-0.71 C 4346.78,1292.38 3624.11,1035.39 2843.61,757.852 l -2.44,-0.872 -0.88,2.45 c -1.28,3.539 -2.66,7.39 -4.04,11.25 -197.35,549.28 -384.47,1070.07 -550.24,1531.49 l -0.81,2.25 2.24,0.78 c 1248.1,437.65 2090.43,733.01 2110.13,739.93 -19.68,-6.95 -861.38,-304.1 -2108.56,-744.38 l 1.44,3.02 c 165.92,-461.37 353.18,-982.11 550.69,-1531.34 1.39,-3.84 2.78,-7.7 4.05,-11.25 l -3.32,1.582 c 780.61,277.198 1503.4,533.858 2090.85,742.478 l -1.3,-2.71 C 4608,2437.08 4403.31,3028.58 4397.57,3045.13"
         style="fill:#17282f;fill-opacity:1;fill-rule:nonzero;stroke:none"
         id="path176" />
      <path
         d="m 4457,1565.48 c -4.06,-1.5 -105.38,261.59 -226.32,587.55 -120.97,326.08 -215.72,591.54 -211.68,593.05 4.04,1.5 105.36,-261.54 226.33,-587.61 120.93,-325.97 215.71,-591.49 211.67,-592.99"
         style="fill:#17282f;fill-opacity:1;fill-rule:nonzero;stroke:none"
         id="path178" />
      <path
         d="m 4276.85,1483.14 c -4.05,-1.5 -105.39,261.59 -226.32,587.56 -120.96,326.07 -215.72,591.53 -211.68,593.04 4.05,1.5 105.36,-261.54 226.33,-587.62 120.93,-325.95 215.71,-591.48 211.67,-592.98"
         style="fill:#17282f;fill-opacity:1;fill-rule:nonzero;stroke:none"
         id="path180" />
      <path
         d="m 3717.53,1248.87 c -4.04,-1.49 -105.38,261.59 -226.3,587.56 -120.98,326.07 -215.74,591.54 -211.69,593.03 4.04,1.5 105.36,-261.53 226.33,-587.6 120.93,-325.97 215.71,-591.49 211.66,-592.99"
         style="fill:#17282f;fill-opacity:1;fill-rule:nonzero;stroke:none"
         id="path182" />
      <path
         d="m 3895.8,1320.66 c -4.05,-1.51 -105.38,261.59 -226.31,587.55 -120.98,326.07 -215.73,591.54 -211.68,593.04 4.04,1.5 105.35,-261.54 226.33,-587.62 120.92,-325.95 215.7,-591.48 211.66,-592.97"
         style="fill:#17282f;fill-opacity:1;fill-rule:nonzero;stroke:none"
         id="path184" />
      <path
         d="m 4074.06,1392.43 c -4.04,-1.49 -105.38,261.6 -226.31,587.56 -120.97,326.07 -215.73,591.54 -211.68,593.04 4.04,1.5 105.35,-261.53 226.33,-587.61 120.93,-325.96 215.7,-591.48 211.66,-592.99"
         style="fill:#17282f;fill-opacity:1;fill-rule:nonzero;stroke:none"
         id="path186" />
      <path
         d="m 3511.05,1189.46 c -4.04,-1.51 -105.38,261.59 -226.31,587.54 -120.97,326.08 -215.73,591.55 -211.69,593.05 4.05,1.5 105.36,-261.53 226.34,-587.61 120.93,-325.96 215.7,-591.48 211.66,-592.98"
         style="fill:#17282f;fill-opacity:1;fill-rule:nonzero;stroke:none"
         id="path188" />
      <path
         d="m 3313.57,1117.03 c -4.05,-1.49 -105.38,261.6 -226.31,587.56 -120.98,326.08 -215.73,591.54 -211.68,593.04 4.04,1.5 105.35,-261.53 226.32,-587.61 120.94,-325.96 215.71,-591.48 211.67,-592.99"
         style="fill:#17282f;fill-opacity:1;fill-rule:nonzero;stroke:none"
         id="path190" />
      <path
         d="m 3116.09,1044.62 c -4.05,-1.5 -105.38,261.59 -226.31,587.55 -120.98,326.07 -215.73,591.54 -211.68,593.04 4.04,1.51 105.35,-261.53 226.32,-587.6 120.94,-325.97 215.71,-591.48 211.67,-592.99"
         style="fill:#17282f;fill-opacity:1;fill-rule:nonzero;stroke:none"
         id="path192" />
      <path
         d="M 1928.44,2084.19 2104.71,608.27 c 3.14,-26.231 25.34,-45.989 51.76,-46.079 l 2307.41,-7.031 c 27.28,-0.078 50.04,20.828 52.27,48.02 l 120.66,1475.02 c 2.48,30.39 -21.45,56.44 -51.95,56.54 l -2604.35,7.94 c -31.39,0.09 -55.79,-27.32 -52.07,-58.49"
         style="fill:#f03d5f;fill-opacity:1;fill-rule:nonzero;stroke:none"
         id="path194" />
      <path
         d="m 4751.54,2495.78 -77.78,-55.7 45.33,-223 102.24,91.2 -69.79,187.5"
         style="fill:#d06958;fill-opacity:1;fill-rule:nonzero;stroke:none"
         id="path196" />
      <path
         d="m 4769.21,818.57 323.52,157.18 415,-49.809 c 27.58,-20.562 46.68,-52.14 52.1,-86.101 1.78,-11.16 1.86,-23.488 -4.72,-32.668 -9.31,-13.024 -28.34,-14.621 -43.87,-10.774 -15.54,3.852 -30.03,11.832 -45.93,13.711 -30.87,3.661 -59.37,-16.089 -82.57,-36.789 -23.2,-20.691 -46.31,-44.3 -76.61,-51.218 -26.67,-6.082 -54.74,2.046 -78.97,14.73 -24.23,12.668 -45.87,29.77 -69.52,43.5 -43.93,25.5 -95.74,39.047 -146.11,32.469 -40.27,-5.25 -78.05,-22.903 -118.17,-29.25 -40.1,-6.371 -102.37,0.73 -124.15,35.019"
         style="fill:#33535f;fill-opacity:1;fill-rule:nonzero;stroke:none"
         id="path198" />
      <path
         d="m 5540.51,176.672 c 0,0 -265.01,903.498 -270.03,932.378 -4.54,26.11 36.78,659.08 55.25,823.32 l -291.88,-2.46 c 0,0 -0.05,-1 -0.11,-2.74 l -138.73,-3.42 62.17,-1797.008 179.46,-13.832 -1.2,592.879 c 113.21,-285.891 244.38,-604.687 244.38,-604.687 l 160.69,75.57"
         style="fill:#ef8068;fill-opacity:1;fill-rule:nonzero;stroke:none"
         id="path200" />
      <path
         d="m 5017.11,1150.47 c 0.55,-0.09 -0.55,-7.04 -1.21,-19.7 -0.74,-12.63 -1.03,-30.98 0.8,-53.53 1.86,-22.53 5.83,-49.27 13.08,-78.26 6.83,-29.128 19.38,-59.558 31.65,-92.07 24.6,-64.879 46.56,-123.711 62.2,-166.41 7.45,-20.711 13.6,-37.801 18.22,-50.648 4.19,-12.012 6.33,-18.723 5.95,-18.864 -0.37,-0.136 -3.21,6.301 -8.05,18.051 -5.06,12.691 -11.79,29.57 -19.94,50.012 -16.61,42.328 -39.18,100.929 -63.79,165.808 -6.1,16.231 -12.06,32.082 -17.83,47.411 -5.6,15.492 -10.01,30.75 -13.58,45.429 -7.05,29.391 -10.63,56.451 -11.99,79.251 -1.32,22.81 -0.39,41.33 1.04,54.02 0.65,6.35 1.49,11.23 2.18,14.52 0.64,3.3 1.07,5.01 1.27,4.98"
         style="fill:#d06958;fill-opacity:1;fill-rule:nonzero;stroke:none"
         id="path202" />
      <path
         d="m 5135.87,490.582 c 0.33,5.477 4.11,201.039 4.11,201.039 0,0 -65.06,181.52 -66.74,176 -1.69,-5.519 62.63,-377.039 62.63,-377.039"
         style="fill:#d06958;fill-opacity:1;fill-rule:nonzero;stroke:none"
         id="path204" />
      <path
         d="m 4947,127.789 0.49,20.211 190.3,-3.82 -0.91,-66.6292 L 5125.12,77 C 5072.79,75.0313 4858.91,70.6914 4824.15,81.9102 4785.39,94.4297 4947,127.789 4947,127.789"
         style="fill:#f03d5f;fill-opacity:1;fill-rule:nonzero;stroke:none"
         id="path206" />
      <path
         d="m 5137.62,132.219 0.02,0.992 v 0 l -0.02,-0.992"
         style="fill:#ffffff;fill-opacity:1;fill-rule:nonzero;stroke:none"
         id="path208" />
      <path
         d="m 5136.73,80.3086 -0.07,1.4805 -68,0.5898 c 3.36,14.9609 12.18,28.6521 24.45,37.8511 11.27,8.442 24.75,13.262 38.67,13.262 1.95,0 3.9,-0.094 5.86,-0.281 l -0.02,-0.992 -0.89,-51.9104"
         style="fill:#f46789;fill-opacity:1;fill-rule:nonzero;stroke:none"
         id="path210" />
      <path
         d="m 5006.82,74.1406 c -17.52,0 -35.12,0.1407 -52.17,0.4102 5.82,-0.0313 11.67,-0.0391 17.54,-0.0391 63.04,0 127.33,1.5274 152.93,2.4883 l 11.76,0.5508 c -33.34,-2.3399 -81.35,-3.4102 -130.06,-3.4102"
         style="fill:#f7f7f6;fill-opacity:1;fill-rule:nonzero;stroke:none"
         id="path212" />
      <path
         d="m 4825.88,81.4023 c -4.38,0.8086 -7.06,1.668 -7.73,2.5977 -0.95,1.2891 -0.69,2.6992 0.46,4.1602 -1.36,-2.3907 0.17,-4.5196 5.54,-6.25 0.53,-0.1797 1.11,-0.3516 1.73,-0.5079"
         style="fill:#ffffff;fill-opacity:1;fill-rule:nonzero;stroke:none"
         id="path214" />
      <path
         d="m 4855.35,104.949 c 6.16,1.942 10.97,3.281 12.28,3.641 -4.21,-1.199 -8.33,-2.41 -12.28,-3.641"
         style="fill:#f7f7f6;fill-opacity:1;fill-rule:nonzero;stroke:none"
         id="path216" />
      <path
         d="m 4972.19,74.5117 c -5.87,0 -11.72,0.0078 -17.54,0.0391 -58.09,0.9101 -109.64,3.3203 -128.77,6.8515 -0.62,0.1563 -1.2,0.3282 -1.73,0.5079 -5.37,1.7304 -6.9,3.8593 -5.54,6.25 4.63,5.8984 23.7,12.6918 36.74,16.7888 3.95,1.231 8.07,2.442 12.28,3.641 0.23,0.058 0.35,0.09 0.35,0.09 C 4879,108.031 4884.31,84 4884.31,84 l 184.35,-1.6211 c -0.16,-0.6992 -0.31,-1.4101 -0.44,-2.1094 l 68.51,-0.0078 v 0.0469 l 0.15,-2.7578 L 5125.12,77 c -25.6,-0.9609 -89.89,-2.4883 -152.93,-2.4883"
         style="fill:#f46789;fill-opacity:1;fill-rule:nonzero;stroke:none"
         id="path218" />
      <path
         d="m 5136.73,80.2617 -68.51,0.0078 c 0.13,0.6993 0.28,1.4102 0.44,2.1094 l 68,-0.5898 0.07,-1.4805 v -0.0469"
         style="fill:#f68ca8;fill-opacity:1;fill-rule:nonzero;stroke:none"
         id="path220" />
      <path
         d="m 5139.62,81.8516 c 0.01,-0.0821 -1.12,-0.1797 -3.26,-0.3008 -2.81,-0.1211 -5.89,-0.25 -9.36,-0.4024 -9.37,-0.2382 -20.87,-0.5273 -34.46,-0.8789 -29.1,-0.5507 -69.31,-0.7695 -113.72,-0.039 -44.42,0.7383 -84.62,2.2812 -113.68,3.789 -13.56,0.8008 -25.06,1.4805 -34.41,2.0313 -3.47,0.2578 -6.54,0.4883 -9.34,0.7109 -2.14,0.1875 -3.26,0.3203 -3.25,0.3985 0,0.082 1.13,0.1015 3.27,0.0586 2.81,-0.0899 5.89,-0.1797 9.37,-0.2774 9.35,-0.3594 20.86,-0.793 34.43,-1.293 29.08,-1.0976 69.25,-2.3867 113.64,-3.1289 44.39,-0.7187 84.58,-0.7578 113.68,-0.6289 13.58,0.0586 25.09,0.1094 34.46,0.1485 3.47,-0.0078 6.55,-0.0196 9.36,-0.0274 2.15,-0.0312 3.27,-0.082 3.27,-0.1601"
         style="fill:#17282f;fill-opacity:1;fill-rule:nonzero;stroke:none"
         id="path222" />
      <path
         d="m 4884.3,81.0508 c -0.69,-0.082 -1.09,8.1484 -6.14,16.5508 -4.9,8.4804 -11.91,12.8004 -11.51,13.3784 0.14,0.571 8.2,-3.14 13.49,-12.2183 5.38,-9.0117 4.74,-17.8633 4.16,-17.7109"
         style="fill:#17282f;fill-opacity:1;fill-rule:nonzero;stroke:none"
         id="path224" />
      <path
         d="m 4940.7,108.449 c -0.55,-0.328 -3.17,2.973 -5.85,7.36 -2.69,4.41 -4.42,8.242 -3.89,8.582 0.54,0.328 3.16,-2.969 5.85,-7.379 2.69,-4.403 4.43,-8.242 3.89,-8.563"
         style="fill:#17282f;fill-opacity:1;fill-rule:nonzero;stroke:none"
         id="path226" />
      <path
         d="m 4956.18,116.289 c -0.43,-0.469 -3.39,1.582 -6.6,4.57 -3.22,2.993 -5.47,5.793 -5.04,6.25 0.44,0.473 3.39,-1.578 6.6,-4.57 3.21,-2.988 5.47,-5.789 5.04,-6.25"
         style="fill:#17282f;fill-opacity:1;fill-rule:nonzero;stroke:none"
         id="path228" />
      <path
         d="m 4966.19,134.012 c -0.01,-0.641 -4.45,-1.133 -9.91,-1.102 -5.47,0.039 -9.9,0.582 -9.9,1.211 0.01,0.641 4.45,1.129 9.91,1.09 5.47,-0.031 9.9,-0.57 9.9,-1.199"
         style="fill:#17282f;fill-opacity:1;fill-rule:nonzero;stroke:none"
         id="path230" />
      <path
         d="m 4969.73,146.551 c 0.21,-0.559 -4.66,-2.649 -11.08,-3.012 -6.44,-0.391 -11.51,1.121 -11.37,1.723 0.12,0.648 5.13,0.187 11.23,0.57 6.11,0.328 11.03,1.359 11.22,0.719"
         style="fill:#17282f;fill-opacity:1;fill-rule:nonzero;stroke:none"
         id="path232" />
      <path
         d="m 4934.56,125.082 c 0.01,-0.25 -4.68,-0.742 -12.18,0.289 -3.74,0.508 -8.16,1.481 -12.91,3.078 -2.36,0.891 -4.83,1.563 -7.36,3.18 -1.2,0.832 -2.51,1.992 -2.95,3.84 -0.47,1.84 0.53,3.871 1.93,4.832 11.74,5.828 23.28,-0.91 27.49,-7.012 2.32,-3.098 3.37,-6.117 3.84,-8.187 0.45,-2.09 0.39,-3.27 0.25,-3.293 -0.43,-0.149 -0.74,4.8 -5.36,10.48 -2.28,2.781 -5.76,5.512 -10.28,6.941 -4.28,1.352 -10.39,1.801 -14.53,-0.738 -1.96,-1.402 -1.24,-3.683 0.88,-5 1.98,-1.332 4.56,-2.16 6.79,-3.043 4.58,-1.668 8.86,-2.769 12.48,-3.488 7.28,-1.41 11.92,-1.5 11.91,-1.879"
         style="fill:#17282f;fill-opacity:1;fill-rule:nonzero;stroke:none"
         id="path234" />
      <path
         d="m 4931.39,124.531 c -0.17,-0.121 -1.91,3.008 -1.26,8.481 0.34,2.687 1.39,5.847 3.48,8.84 2.2,2.66 5.03,6.339 10.24,6.019 2.82,-0.41 4.14,-3.641 3.66,-5.68 -0.26,-2.132 -1.24,-3.949 -2.16,-5.402 -1.87,-3.008 -3.96,-5.437 -5.88,-7.269 -3.88,-3.661 -6.93,-5.04 -7.05,-4.809 -0.21,0.301 2.46,2.148 5.89,5.949 1.7,1.891 3.55,4.301 5.22,7.211 1.72,2.539 2.94,7.141 -0.11,7.75 -3.04,0.348 -6.2,-2.629 -8.1,-5.031 -1.96,-2.598 -3.08,-5.418 -3.59,-7.852 -1.01,-4.949 0.07,-8.117 -0.34,-8.207"
         style="fill:#17282f;fill-opacity:1;fill-rule:nonzero;stroke:none"
         id="path236" />
      <path
         d="m 5136.66,133.75 c -0.05,-0.43 -5.42,0.621 -14,-0.25 -8.49,-0.789 -20.36,-4.07 -30.76,-12.051 -10.39,-8.008 -16.59,-18.64 -19.54,-26.6404 -3.04,-8.0664 -3.41,-13.5273 -3.84,-13.4688 -0.14,0.0196 -0.18,1.379 0.06,3.8321 0.24,2.4375 0.89,5.957 2.25,10.1679 2.62,8.3712 8.83,19.5702 19.67,27.9222 10.85,8.328 23.28,11.468 32.03,11.859 4.41,0.231 7.99,-0.051 10.41,-0.441 2.44,-0.391 3.75,-0.789 3.72,-0.93"
         style="fill:#17282f;fill-opacity:1;fill-rule:nonzero;stroke:none"
         id="path238" />
      <path
         d="m 5044.69,99.1406 c 0.07,-0.5898 -12.3,-2.3984 -27.7,-2.2617 -15.4,0.0899 -27.75,2.1094 -27.67,2.6914 0.08,0.6677 12.43,-0.3008 27.69,-0.3984 15.25,-0.1328 27.62,0.6367 27.68,-0.0313"
         style="fill:#17282f;fill-opacity:1;fill-rule:nonzero;stroke:none"
         id="path240" />
      <path
         d="m 5081.82,98.5586 c 0.46,-0.4688 -1.05,-2.5977 -2.36,-5.418 -1.36,-2.8086 -2.05,-5.332 -2.71,-5.2695 -0.6,0.0078 -0.91,3.0078 0.63,6.25 1.53,3.25 4.04,4.9102 4.44,4.4375"
         style="fill:#17282f;fill-opacity:1;fill-rule:nonzero;stroke:none"
         id="path242" />
      <path
         d="m 5096.12,115.73 c 0.45,-0.449 -0.81,-2.398 -2.8,-4.351 -2.01,-1.949 -3.98,-3.18 -4.42,-2.719 -0.45,0.449 0.81,2.41 2.8,4.36 2,1.949 3.98,3.16 4.42,2.71"
         style="fill:#17282f;fill-opacity:1;fill-rule:nonzero;stroke:none"
         id="path244" />
      <path
         d="m 5116.28,123.34 c -0.14,-0.629 -2.66,-0.57 -5.45,-1.5 -2.83,-0.871 -4.84,-2.391 -5.33,-1.949 -0.5,0.371 1.14,3.031 4.62,4.14 3.48,1.121 6.36,-0.101 6.16,-0.691"
         style="fill:#17282f;fill-opacity:1;fill-rule:nonzero;stroke:none"
         id="path246" />
      <path
         d="m 5130.6,126.852 c 0.22,-0.602 -0.89,-1.551 -2.47,-2.133 -1.58,-0.59 -3.04,-0.567 -3.26,0.023 -0.22,0.59 0.89,1.547 2.47,2.137 1.58,0.57 3.04,0.562 3.26,-0.027"
         style="fill:#17282f;fill-opacity:1;fill-rule:nonzero;stroke:none"
         id="path248" />
      <path
         d="m 5379.83,96.8984 -8.58,18.3126 172.03,81.469 28.9,-60.051 -10.27,-5.731 C 5515.95,105.801 5326.47,6.48828 5290.36,1.03125 c -40.28,-6.10156 89.47,95.86715 89.47,95.86715"
         style="fill:#f03d5f;fill-opacity:1;fill-rule:nonzero;stroke:none"
         id="path250" />
      <path
         d="m 5548.49,185.84 -0.45,0.949 v 0 l 0.45,-0.949"
         style="fill:#e5e5e3;fill-opacity:1;fill-rule:nonzero;stroke:none"
         id="path252" />
      <path
         d="m 5508.98,110.531 c -3.67,14.879 -1.88,31.071 5,44.778 7.21,14.351 19.06,25.761 34.06,31.48 l 0.45,-0.949 22.36,-46.84 -0.76,1.32 -61.11,-29.789"
         style="fill:#f46789;fill-opacity:1;fill-rule:nonzero;stroke:none"
         id="path254" />
      <path
         d="m 5285.33,-0.0078125 c -0.56,0 -1,0.078125 -1.28,0.2265625 -1.44,0.742188 -1.83,2.13281 -1.44,3.97266 -0.13,-2.19141 1.29,-3.429691 4.66,-3.429691 0.89,0 1.92,0.089844 3.09,0.269531 0.56,0.07813 1.16,0.1875 1.8,0.32031 -3.09,-0.890622 -5.39,-1.3593725 -6.83,-1.3593725 M 5308.14,35.7109 c 4.42,4.25 7.96,7.4493 9.11,8.4805 -3.14,-2.8594 -6.2,-5.6992 -9.11,-8.4805"
         style="fill:#ffffff;fill-opacity:1;fill-rule:nonzero;stroke:none"
         id="path256" />
      <path
         d="m 5418.83,56.6914 c -0.08,0 -0.14,0 -0.22,0 58.83,29.168 119.81,61.3786 143.3,74.2066 l 10.27,5.731 c -37.27,-21.957 -97.52,-52.9884 -153.35,-79.9376"
         style="fill:#e5e5e3;fill-opacity:1;fill-rule:nonzero;stroke:none"
         id="path258" />
      <path
         d="m 5410.6,52.7383 c 2.66,1.3125 5.34,2.6328 8.01,3.9531 0.08,0 0.14,0 0.22,0 -2.75,-1.3203 -5.5,-2.6406 -8.23,-3.9531"
         style="fill:#57666b;fill-opacity:1;fill-rule:nonzero;stroke:none"
         id="path260" />
      <path
         d="m 5287.27,0.761719 c -3.37,0 -4.79,1.238281 -4.66,3.429691 1.56,7.39059 15.7,22.05079 25.53,31.51949 2.91,2.7813 5.97,5.6211 9.11,8.4805 0.25,0.2305 0.39,0.3477 0.39,0.3477 1.03,0.4414 2.12,0.6406 3.24,0.6406 9.9,0 22.39,-15.4492 22.39,-15.4492 l 165.71,80.8005 c 0.17,-0.699 0.35,-1.402 0.55,-2.09 l 61.32,30.559 1.33,-2.371 -10.27,-5.731 c -23.49,-12.828 -84.47,-45.0386 -143.3,-74.2066 -2.67,-1.3203 -5.35,-2.6406 -8.01,-3.9531 -52.45,-25.1289 -99.7,-45.99611 -118.44,-51.38674 -0.64,-0.13281 -1.24,-0.24218 -1.8,-0.32031 -1.17,-0.179687 -2.2,-0.269531 -3.09,-0.269531"
         style="fill:#f46789;fill-opacity:1;fill-rule:nonzero;stroke:none"
         id="path262" />
      <path
         d="m 5509.53,108.441 c -0.2,0.688 -0.38,1.391 -0.55,2.09 l 61.11,29.789 0.76,-1.32 -61.32,-30.559"
         style="fill:#f68ca8;fill-opacity:1;fill-rule:nonzero;stroke:none"
         id="path264" />
      <path
         d="m 5572.73,141.711 c 0.03,-0.07 -0.93,-0.652 -2.79,-1.719 -2.46,-1.363 -5.16,-2.851 -8.21,-4.543 -8.27,-4.379 -18.43,-9.777 -30.44,-16.16 -25.8,-13.469 -61.69,-31.5976 -101.76,-50.7577 -40.08,-19.1602 -76.74,-35.711 -103.43,-47.3321 -12.5,-5.3281 -23.09,-9.8476 -31.7,-13.52732 -3.22,-1.3125 -6.07,-2.47266 -8.68,-3.54297 -1.99,-0.77735 -3.06,-1.16016 -3.09,-1.07813 -0.03,0.07031 0.97,0.57813 2.9,1.50781 2.56,1.1836 5.35,2.47266 8.52,3.9336 8.52,3.85941 19.01,8.59761 31.39,14.19921 26.51,11.9883 63.03,28.7695 103.1,47.9102 40.05,19.1484 76.04,37.0394 102.01,50.1284 12.13,6.122 22.41,11.301 30.77,15.52 3.12,1.539 5.88,2.902 8.4,4.152 1.94,0.93 2.97,1.387 3.01,1.309"
         style="fill:#17282f;fill-opacity:1;fill-rule:nonzero;stroke:none"
         id="path266" />
      <path
         d="m 5344.58,27.0898 c -0.6,-0.3789 -4.62,6.8204 -12.89,12.0704 -8.17,5.3984 -16.37,6.1406 -16.26,6.8515 -0.13,0.5703 8.74,0.8477 17.51,-4.9219 8.84,-5.6679 12.21,-13.871 11.64,-14"
         style="fill:#17282f;fill-opacity:1;fill-rule:nonzero;stroke:none"
         id="path268" />
      <path
         d="m 5382.83,76.7695 c -0.34,-0.539 -4.16,1.25 -8.53,3.9805 -4.36,2.75 -7.63,5.3984 -7.3,5.9414 0.34,0.5391 4.15,-1.25 8.52,-3.9805 4.37,-2.75 7.64,-5.4023 7.31,-5.9414"
         style="fill:#17282f;fill-opacity:1;fill-rule:nonzero;stroke:none"
         id="path270" />
      <path
         d="m 5393.18,90.6992 c -0.18,-0.6094 -3.74,-0.0976 -7.95,1.1524 -4.21,1.2382 -7.47,2.7304 -7.29,3.3476 0.17,0.6016 3.74,0.0899 7.94,-1.1601 4.21,-1.2383 7.48,-2.7383 7.3,-3.3399"
         style="fill:#17282f;fill-opacity:1;fill-rule:nonzero;stroke:none"
         id="path272" />
      <path
         d="m 5394.23,111.02 c 0.28,-0.579 -3.47,-2.989 -8.37,-5.399 -4.92,-2.41 -9.13,-3.902 -9.4,-3.332 -0.28,0.57 3.48,2.992 8.38,5.402 4.91,2.399 9.11,3.891 9.39,3.329"
         style="fill:#17282f;fill-opacity:1;fill-rule:nonzero;stroke:none"
         id="path274" />
      <path
         d="m 5391.81,123.832 c 0.43,-0.422 -2.99,-4.453 -8.58,-7.652 -5.58,-3.211 -10.79,-4.121 -10.93,-3.528 -0.19,0.629 4.49,2.469 9.79,5.528 5.32,3.019 9.26,6.14 9.72,5.652"
         style="fill:#17282f;fill-opacity:1;fill-rule:nonzero;stroke:none"
         id="path276" />
      <path
         d="m 5369.91,88.9219 c 0.12,-0.2305 -3.85,-2.7617 -11.03,-5.1797 -3.57,-1.2031 -7.97,-2.3125 -12.93,-3 -2.51,-0.25 -5.02,-0.75 -8.01,-0.4414 -1.43,0.2187 -3.13,0.6601 -4.35,2.1211 -1.24,1.4375 -1.24,3.6992 -0.43,5.1875 7.91,10.4609 21.25,9.5703 27.73,6 3.47,-1.75 5.75,-3.9805 7.08,-5.6289 1.34,-1.6719 1.82,-2.75 1.71,-2.8282 -0.32,-0.3203 -2.81,3.9688 -9.48,6.9883 -3.28,1.4688 -7.62,2.3594 -12.29,1.6211 -4.44,-0.7031 -10.1,-3.0312 -12.68,-7.1406 -1.12,-2.1289 0.54,-3.8516 3.03,-4.082 2.36,-0.3086 5.04,0.1015 7.43,0.3007 4.84,0.5586 9.16,1.4805 12.72,2.4493 7.14,1.9804 11.34,3.9726 11.5,3.6328"
         style="fill:#17282f;fill-opacity:1;fill-rule:nonzero;stroke:none"
         id="path278" />
      <path
         d="m 5367.32,87.0117 c -0.1,-0.1797 -3.06,1.8477 -4.9,7.0274 -0.9,2.5507 -1.38,5.8593 -0.84,9.4729 0.78,3.359 1.67,7.91 6.48,9.957 2.7,0.89 5.32,-1.418 5.8,-3.457 0.73,-2.02 0.65,-4.082 0.48,-5.801 -0.32,-3.52 -1.11,-6.629 -2.02,-9.1212 -1.84,-5.0195 -3.95,-7.5976 -4.16,-7.4492 -0.32,0.168 1.25,3.0196 2.62,7.9414 0.67,2.4571 1.26,5.449 1.45,8.789 0.4,3.039 -0.55,7.699 -3.55,6.891 -2.87,-1.051 -4.38,-5.133 -5.01,-8.121 -0.6,-3.2113 -0.33,-6.2191 0.3,-8.6293 1.29,-4.8711 3.67,-7.2304 3.35,-7.5"
         style="fill:#17282f;fill-opacity:1;fill-rule:nonzero;stroke:none"
         id="path280" />
      <path
         d="m 5546.91,186.84 c 0.15,-0.399 -5.12,-1.871 -12.41,-6.469 -7.25,-4.5 -16.41,-12.719 -22.15,-24.512 -5.72,-11.808 -6.54,-24.078 -5.62,-32.558 0.89,-8.582 2.99,-13.621 2.58,-13.762 -0.12,-0.059 -0.78,1.152 -1.65,3.453 -0.88,2.297 -1.87,5.738 -2.53,10.11 -1.38,8.66 -0.82,21.457 5.16,33.769 5.99,12.281 15.71,20.629 23.37,24.891 3.85,2.179 7.18,3.527 9.52,4.25 2.35,0.73 3.69,0.957 3.73,0.828"
         style="fill:#17282f;fill-opacity:1;fill-rule:nonzero;stroke:none"
         id="path282" />
      <path
         d="m 5480.04,114.852 c 0.34,-0.512 -9.94,-7.653 -23.77,-14.403 -13.83,-6.7771 -25.78,-10.4881 -25.97,-9.9177 -0.24,0.6171 11.26,5.2578 24.96,11.9807 13.71,6.679 24.43,12.898 24.78,12.34"
         style="fill:#17282f;fill-opacity:1;fill-rule:nonzero;stroke:none"
         id="path284" />
      <path
         d="m 5513.54,130.879 c 0.62,-0.207 0.22,-2.797 0.3,-5.91 0.04,-3.098 0.54,-5.668 -0.06,-5.918 -0.56,-0.262 -2.17,2.289 -2.24,5.871 -0.08,3.598 1.43,6.199 2,5.957"
         style="fill:#17282f;fill-opacity:1;fill-rule:nonzero;stroke:none"
         id="path286" />
      <path
         d="m 5518.68,152.629 c 0.59,-0.207 0.34,-2.52 -0.58,-5.16 -0.91,-2.629 -2.14,-4.598 -2.73,-4.387 -0.6,0.199 -0.34,2.508 0.56,5.148 0.92,2.629 2.14,4.602 2.75,4.399"
         style="fill:#17282f;fill-opacity:1;fill-rule:nonzero;stroke:none"
         id="path288" />
      <path
         d="m 5533.32,168.43 c 0.16,-0.641 -2.12,-1.7 -4.21,-3.782 -2.14,-2.027 -3.26,-4.289 -3.9,-4.109 -0.6,0.102 -0.33,3.211 2.3,5.75 2.6,2.563 5.73,2.75 5.81,2.141"
         style="fill:#17282f;fill-opacity:1;fill-rule:nonzero;stroke:none"
         id="path290" />
      <path
         d="m 5544.57,177.961 c 0.46,-0.43 -0.1,-1.781 -1.25,-3.012 -1.17,-1.23 -2.47,-1.859 -2.93,-1.429 -0.47,0.429 0.09,1.769 1.26,3.011 1.15,1.231 2.46,1.867 2.92,1.43"
         style="fill:#17282f;fill-opacity:1;fill-rule:nonzero;stroke:none"
         id="path292" />
      <path
         d="m 5317.94,1983.3 0.07,0.02 c -79.84,138.05 -100.02,121.92 -72.97,202.33 l 77.93,261.45 -32.78,164.1 c -40.17,38.71 -90.7,53.56 -138.18,50.54 l -162.81,-11.2 c 0,0 -80.11,17.56 -198.12,-97.1 l -81.75,-76.28 102.95,-195.35 5.14,-88.55 74.25,-242.35 -19.8,-106.85 c -8.6,-81.32 -117.97,-1013.751 -103.14,-1028.478 15.48,-15.383 243.39,98.707 298.6,52.098 55.2,-46.621 166.32,-75.192 229,-55.129 62.69,20.058 156.71,144.847 251.58,60.719 0,0 -31.03,827.25 -229.97,1110.03"
         style="fill:#17282f;fill-opacity:1;fill-rule:nonzero;stroke:none"
         id="path294" />
      <path
         d="m 5228.33,2650.5 c 0,0 169.57,-45.17 144.54,-166.26 -12.32,-59.57 -93.61,-183.79 -93.61,-183.79 l -192.2,90.93 141.27,259.12"
         style="fill:#17282f;fill-opacity:1;fill-rule:nonzero;stroke:none"
         id="path296" />
      <path
         d="m 4882.46,1901.21 c 0,0 9.04,8.85 28.68,20.29 19.32,11.14 51.11,25.25 92.32,22.76 20.17,-1.35 43.05,-5.77 63.56,-18.91 20.45,-12.6 39.34,-32.06 49.65,-57.5 5.1,-12.63 7.9,-26.75 7,-41.13 -0.82,-14.41 -5.53,-28.63 -12.54,-41.62 -13.73,-26.27 -35.29,-48.12 -49.57,-74.92 -15.11,-26.66 -15.64,-57.52 -13.5,-86.14 1.77,-28.69 6.22,-57.34 -0.21,-84.12 -2.91,-13.26 -7.69,-25.84 -14.6,-36.81 -6.83,-10.96 -15.86,-20.51 -26.95,-26.08 -10.96,-5.67 -23.29,-7.53 -34.56,-5.88 -11.3,1.64 -21.39,6.17 -30.14,11.47 -17.67,10.71 -29.8,24.98 -41.3,35.92 -11.5,11.13 -21.92,20.15 -30.78,27.07 -8.89,6.9 -16.25,11.61 -21.37,14.58 -5.11,3 -7.99,4.24 -7.88,4.47 0.04,0.09 0.78,-0.17 2.2,-0.73 1.43,-0.54 3.52,-1.46 6.18,-2.81 5.32,-2.7 12.95,-7.18 22.09,-13.9 9.13,-6.72 19.82,-15.59 31.56,-26.57 11.84,-10.89 23.98,-24.72 41.2,-34.88 8.52,-5.03 18.19,-9.22 28.79,-10.63 10.55,-1.45 21.91,0.41 32,5.71 10.21,5.22 18.64,14.2 25.07,24.67 6.51,10.48 11.07,22.62 13.8,35.43 6.09,25.71 1.7,53.76 -0.19,82.74 -0.97,14.54 -1.59,29.54 0.18,44.73 1.68,15.15 6.2,30.49 13.81,44.2 14.82,27.69 36.39,49.47 49.66,74.86 6.81,12.54 11.27,26.01 12.09,39.56 0.9,13.55 -1.67,26.94 -6.5,39.02 -9.69,24.35 -27.81,43.31 -47.47,55.62 -19.66,12.83 -41.71,17.33 -61.51,18.91 -40.22,2.91 -71.63,-10.35 -91.11,-20.86 -9.9,-5.32 -17.16,-10.22 -22.09,-13.52 -2.22,-1.53 -4.05,-2.79 -5.56,-3.83 -1.28,-0.84 -1.95,-1.24 -2.01,-1.17"
         style="fill:#fafaf9;fill-opacity:1;fill-rule:nonzero;stroke:none"
         id="path298" />
      <path
         d="m 5527.95,1125.81 c 0.01,-0.09 -0.87,-0.3 -2.62,-0.63 -2.05,-0.34 -4.62,-0.78 -7.8,-1.33 -6.85,-1.09 -16.97,-2.66 -30.04,-4.43 -26.13,-3.33 -64.15,-8.72 -111.54,-7.55 -23.63,0.73 -49.65,3.28 -76.7,10.37 -26.98,6.94 -55.16,18.19 -81.18,36.09 -25.76,17.81 -49.88,42.58 -63.54,74.45 -13.7,31.46 -18.41,68.85 -8.55,104.37 5.06,17.67 14.16,33.9 25.92,47.36 11.9,13.35 25.75,24.06 38.95,34.62 13.23,10.54 25.9,21.23 35.88,33.74 9.91,12.55 16.3,27.09 19.41,42.1 6.43,30.1 3.45,60.02 4.8,87.8 0.75,27.8 6.85,54.27 19.32,74.74 11.71,20.9 27.51,36.3 42.6,47.54 15.23,11.23 30.26,18.01 42.89,22 12.64,4.1 22.93,5.43 29.85,6.04 3.23,0.11 5.83,0.2 7.92,0.27 1.78,0.04 2.7,0.01 2.7,-0.08 0.15,-0.95 -14.95,0.43 -39.83,-8.15 -12.35,-4.23 -27.01,-11.17 -41.79,-22.42 -14.64,-11.25 -29.93,-26.52 -41.13,-47.01 -11.96,-20.13 -17.61,-45.59 -18.21,-73.09 -1.2,-27.47 2.05,-57.44 -4.43,-88.66 -3.14,-15.53 -9.85,-30.99 -20.18,-44.14 -10.38,-13.1 -23.37,-24.06 -36.61,-34.65 -13.22,-10.64 -26.81,-21.21 -38.26,-34.07 -11.25,-12.95 -19.92,-28.4 -24.79,-45.38 -9.48,-34.1 -5.02,-70.38 8.2,-100.88 13.15,-30.86 36.48,-55 61.62,-72.55 25.35,-17.61 52.99,-28.85 79.55,-35.87 26.59,-7.16 52.28,-9.9 75.72,-10.86 46.98,-1.64 85,3.16 111.16,5.87 12.79,1.47 22.86,2.63 30.16,3.47 3.2,0.34 5.78,0.6 7.85,0.82 1.78,0.15 2.69,0.19 2.7,0.1"
         style="fill:#fafaf9;fill-opacity:1;fill-rule:nonzero;stroke:none"
         id="path300" />
      <path
         d="m 5051.28,875.809 c -0.09,0.14 1.04,1.089 3.4,2.57 2.23,1.582 6.3,3.18 9.66,6.723 3.54,3.546 2.06,10.296 -0.15,17.148 -2.3,6.93 -6.36,14.309 -10.95,22.531 -9.13,16.438 -19.81,36.117 -33.02,57.059 -13.3,20.82 -29.26,43.07 -49.99,62.52 -20.62,19.49 -43.99,34.14 -67.26,41.83 -23.25,7.71 -45.91,9.36 -64.07,6.04 -18.32,-3.12 -31.64,-10.94 -39.94,-17.09 -8.31,-6.28 -12.21,-10.67 -12.58,-10.3 -0.13,0.11 0.75,1.28 2.58,3.38 1.78,2.15 4.72,5.05 8.75,8.51 8.08,6.78 21.58,15.4 40.51,19.11 18.79,3.92 42.19,2.61 66.25,-5.1 24.12,-7.69 48.25,-22.66 69.32,-42.58 21.22,-19.92 37.29,-42.62 50.49,-63.769 13.12,-21.282 23.48,-41.2 32.2,-57.86 4.37,-8.312 8.34,-16.039 10.49,-23.41 1.07,-3.68 1.77,-7.16 1.93,-10.539 0.27,-3.41 -0.98,-6.863 -3.06,-8.852 -4.21,-3.871 -8.24,-4.941 -10.66,-6.269 -2.5,-1.172 -3.8,-1.813 -3.9,-1.652"
         style="fill:#fafaf9;fill-opacity:1;fill-rule:nonzero;stroke:none"
         id="path302" />
      <path
         d="m 5270.12,2051.51 c 0.2,-0.18 -1.21,-2.33 -4.8,-5.17 -3.58,-2.82 -9.55,-6.11 -17.67,-7.79 -8.05,-1.61 -18.27,-1.47 -28.63,2.4 -10.37,3.83 -20.2,11.62 -27.56,21.81 -15.01,20.79 -16.11,45.01 -14.63,60.69 1.62,16.07 5.06,25.46 5.6,25.32 0.85,-0.16 -1.28,-9.85 -1.93,-25.55 -0.5,-15.42 1.22,-38.14 15.18,-57.42 6.85,-9.45 15.78,-16.68 25.09,-20.38 9.31,-3.75 18.71,-4.3 26.27,-3.24 15.43,2.24 22.53,10.2 23.08,9.33"
         style="fill:#fafaf9;fill-opacity:1;fill-rule:nonzero;stroke:none"
         id="path304" />
      <path
         d="m 5284.44,2339.18 c 0.03,-0.18 -1.3,-0.48 -3.88,-0.88 -2.57,-0.37 -6.42,-0.6 -11.38,-0.35 -9.8,0.67 -24.55,3.9 -39.08,14.66 -7.09,5.42 -14.21,12.6 -19.3,21.96 -5.26,9.24 -8.46,20.46 -9,32.38 -0.44,11.9 1.66,24.66 7.48,36.4 5.69,12 15.62,21.36 24.23,31.19 4.31,4.95 8.22,10.07 10.87,15.59 2.53,5.53 3.74,11.48 2.87,17.25 -1.65,11.68 -9.28,21.61 -14.63,32.03 -5.81,10.4 -8.01,22.43 -6.61,33 1.28,10.66 5.59,20.06 11.3,27.11 11.76,14.29 27.28,18.27 36.95,18.85 4.99,0.3 8.85,-0.18 11.41,-0.68 2.55,-0.55 3.84,-1.02 3.81,-1.18 -0.08,-0.52 -5.45,0.96 -15.03,-0.16 -9.26,-1.14 -23.76,-5.6 -34.25,-19.11 -10.32,-13.05 -14.9,-35.97 -3.33,-55.59 5.15,-9.98 13.31,-19.96 15.44,-33.59 1.05,-6.74 -0.37,-13.87 -3.24,-20.13 -2.97,-6.24 -7.2,-11.7 -11.62,-16.81 -8.95,-10.15 -18.36,-19.05 -23.59,-30.03 -5.48,-10.86 -7.55,-22.8 -7.26,-33.96 0.51,-22.7 12.27,-41.29 25.75,-51.61 13.54,-10.6 27.55,-14.3 37.02,-15.56 9.6,-1.1 15.03,-0.29 15.07,-0.78"
         style="fill:#fafaf9;fill-opacity:1;fill-rule:nonzero;stroke:none"
         id="path306" />
      <path
         d="m 4825.52,2242.91 c 0.11,0.58 5.76,-1.37 16.12,-0.77 10.08,0.56 25.66,3.96 39.29,16.33 13.74,11.78 22.55,34.78 16.52,58.22 -2.81,11.72 -9.69,22.45 -19.67,31.19 -9.6,9.01 -21.82,17.18 -29.45,30.44 -7.45,13.31 -8.37,28.63 -6.7,42.13 1.49,13.68 4.66,26.38 6.8,38.5 2.17,12.08 3.41,23.7 2.08,34.32 -1.23,10.64 -5.05,20.03 -10.85,27.08 -11.52,14.29 -26.58,19.84 -36.57,21.29 -10.22,1.59 -16.02,0 -16.08,0.59 -0.04,0.18 1.36,0.56 4.11,1.11 2.75,0.44 6.9,0.84 12.23,0.31 10.44,-0.89 26.48,-6.05 39.18,-20.98 6.37,-7.34 10.79,-17.57 12.27,-28.83 1.59,-11.29 0.43,-23.42 -1.64,-35.72 -2.05,-12.33 -5.09,-24.99 -6.46,-38.19 -1.55,-13.11 -0.51,-27.07 6.15,-39.02 6.76,-11.89 18.44,-19.96 28.4,-29.28 10.32,-9.06 18.08,-21.21 20.86,-33.79 6.25,-25.27 -3.75,-49.92 -18.73,-62.12 -14.82,-12.76 -31.25,-15.64 -41.69,-15.61 -5.35,-0.03 -9.43,0.76 -12.14,1.39 -2.7,0.75 -4.08,1.23 -4.03,1.41"
         style="fill:#fafaf9;fill-opacity:1;fill-rule:nonzero;stroke:none"
         id="path308" />
      <path
         d="m 5072.01,3152.19 c 33.99,6.78 70.75,-1.81 98.22,-22.95 27.47,-21.14 45.2,-54.46 47.35,-89.06 1.2,-19.17 -1.18,-41.18 12.38,-54.8 9.54,-9.59 24.13,-11.67 36.03,-18.1 22.54,-12.18 33.61,-42.08 24.43,-65.99 -4.6,-11.98 -13.4,-22.01 -17.89,-34.03 -6.62,-17.72 -12.08,-37.99 -6.74,-56.13 27.86,-94.93 -39.45,-106.63 -75.35,-112.95 -50.56,-8.92 -101.87,7.15 -107.12,60.12 -1.69,17.1 -32.14,15.15 -49.18,12.94 -20.56,-2.67 -35.75,-19.59 -50.76,-33.89 -23.31,-22.22 -51.34,-40.71 -82.93,-47.03 -31.58,-6.32 -66.99,1.11 -89.43,24.22 -22.43,23.11 -27.92,62.78 -8.14,88.2 -23.97,10.86 -42.48,33.08 -48.84,58.62 -6.35,25.54 -0.41,53.85 15.68,74.67 12.29,15.91 30.1,27.7 38.88,45.78 7.43,15.29 15.4,50.19 21.2,66.17 8.24,22.67 36.26,61.61 57.95,72.19"
         style="fill:#33535f;fill-opacity:1;fill-rule:nonzero;stroke:none"
         id="path310" />
      <path
         d="m 5161.96,2633.35 -187.79,-2.67 c -3.21,21.66 -9.58,105.99 -9.58,105.99 0,0 -78.7,4.76 -86.95,82.21 -8.26,77.45 -11.58,256.76 -11.58,256.76 86.12,47.02 190.96,43.76 273.98,-8.54 l 12.33,-7.77 9.59,-425.98"
         style="fill:#ef8068;fill-opacity:1;fill-rule:nonzero;stroke:none"
         id="path312" />
      <path
         d="m 4958.35,2869.37 c -0.01,0.85 -6.74,1.56 -17.62,2.04 -2.82,0.04 -5.08,0.46 -5.42,1.95 -0.67,1.64 0.13,4.72 1.25,8.18 2.08,7.32 4.19,14.74 6.39,22.5 8.76,32.01 14.55,58.32 12.91,58.76 -1.62,0.45 -10.03,-25.14 -18.78,-57.15 -2.05,-7.81 -4.02,-15.26 -5.94,-22.63 -0.72,-3.32 -2.32,-7.28 -0.44,-11.75 0.99,-2.23 3.35,-3.69 5.23,-4 1.91,-0.39 3.48,-0.24 4.83,-0.18 10.87,0.63 17.59,1.44 17.59,2.28"
         style="fill:#17282f;fill-opacity:1;fill-rule:nonzero;stroke:none"
         id="path314" />
      <path
         d="m 4964.35,2737.78 c 0,0 49.39,0.63 98.38,38.25 0,0 -18.63,-58.05 -96.66,-58.36 l -1.72,20.11"
         style="fill:#d06958;fill-opacity:1;fill-rule:nonzero;stroke:none"
         id="path316" />
      <path
         d="m 5016.71,2950.32 c 0.08,-5.19 -4.25,-9.54 -9.67,-9.72 -5.41,-0.18 -9.87,3.87 -9.95,9.07 -0.08,5.19 4.25,9.54 9.66,9.72 5.42,0.18 9.89,-3.88 9.96,-9.07"
         style="fill:#17282f;fill-opacity:1;fill-rule:nonzero;stroke:none"
         id="path318" />
      <path
         d="m 5032.86,2961 c -1.24,-1.26 -8.58,4.4 -19.14,4.59 -10.56,0.33 -18.43,-4.95 -19.55,-3.63 -0.56,0.59 0.73,2.87 4.16,5.26 3.37,2.39 9.1,4.65 15.68,4.49 6.58,-0.17 12.07,-2.7 15.2,-5.25 3.21,-2.56 4.26,-4.9 3.65,-5.46"
         style="fill:#17282f;fill-opacity:1;fill-rule:nonzero;stroke:none"
         id="path320" />
      <path
         d="m 4908.45,2950.64 c 0.08,-5.19 -4.26,-9.54 -9.67,-9.72 -5.42,-0.18 -9.87,3.87 -9.95,9.06 -0.08,5.19 4.25,9.55 9.66,9.73 5.42,0.18 9.88,-3.88 9.96,-9.07"
         style="fill:#17282f;fill-opacity:1;fill-rule:nonzero;stroke:none"
         id="path322" />
      <path
         d="m 4922.48,2959.39 c -1.25,-1.26 -8.59,4.4 -19.15,4.58 -10.56,0.34 -18.43,-4.94 -19.55,-3.62 -0.55,0.58 0.73,2.87 4.16,5.26 3.37,2.38 9.1,4.65 15.68,4.49 6.59,-0.17 12.08,-2.71 15.21,-5.25 3.2,-2.56 4.25,-4.9 3.65,-5.46"
         style="fill:#17282f;fill-opacity:1;fill-rule:nonzero;stroke:none"
         id="path324" />
      <path
         d="m 4976.14,2842.11 c -0.91,2.54 -1.84,5.17 -1.69,7.87 0.14,2.7 1.62,5.51 4.18,6.38 1.83,0.63 4,0.22 5.63,1.27 2.23,1.44 2.19,4.67 3.43,7.01 1.68,3.17 5.79,4.47 9.32,3.77 3.52,-0.71 6.51,-3.02 9.05,-5.57 2.91,-2.94 5.52,-6.6 5.57,-10.74 0.05,-4.07 -2.49,-7.86 -5.83,-10.18 -3.35,-2.32 -7.42,-3.37 -11.45,-3.97 -4.35,-0.65 -8.79,-0.83 -13.18,-0.53 -1.27,0.09 -2.58,0.22 -3.7,0.84 -1.12,0.61 -2,1.82 -1.85,3.08"
         style="fill:#d06958;fill-opacity:1;fill-rule:nonzero;stroke:none"
         id="path326" />
      <path
         d="m 4968.46,2840.56 c 17.49,1.79 33.56,13.78 40.25,30.04"
         style="fill:#d06958;fill-opacity:1;fill-rule:nonzero;stroke:none"
         id="path328" />
      <path
         d="m 5008.71,2870.6 c 1.36,-0.19 -1.89,-13.21 -14.52,-22.53 -12.53,-9.46 -25.94,-8.87 -25.73,-7.51 -0.18,1.52 11.52,3.22 22.62,11.68 11.27,8.23 16.22,18.97 17.63,18.36"
         style="fill:#17282f;fill-opacity:1;fill-rule:nonzero;stroke:none"
         id="path330" />
      <path
         d="m 4884.15,2988 c 8.94,4.25 19.32,5.4 28.98,3.22"
         style="fill:#d06958;fill-opacity:1;fill-rule:nonzero;stroke:none"
         id="path332" />
      <path
         d="m 4913.13,2991.22 c -0.78,-2.82 -7.08,-3.52 -14.18,-4.38 -7.12,-0.72 -13.42,-1.42 -14.8,1.16 -1.41,2.45 4.32,8.17 13.65,9.19 9.31,1.05 16.17,-3.27 15.33,-5.97"
         style="fill:#17282f;fill-opacity:1;fill-rule:nonzero;stroke:none"
         id="path334" />
      <path
         d="m 4993.07,2987.23 c 13.24,4.56 28.25,3.74 40.92,-2.24"
         style="fill:#d06958;fill-opacity:1;fill-rule:nonzero;stroke:none"
         id="path336" />
      <path
         d="m 5033.99,2984.99 c -1.38,-2.61 -10.1,-0.59 -20.53,-0.12 -10.41,0.67 -19.29,-0.38 -20.39,2.36 -1.18,2.54 7.99,8.78 20.97,8.04 12.98,-0.69 21.4,-7.89 19.95,-10.28"
         style="fill:#17282f;fill-opacity:1;fill-rule:nonzero;stroke:none"
         id="path338" />
      <path
         d="m 5036.03,3153.7 c -9.97,13.65 -27.64,19.35 -44.43,21.23 -50.78,5.67 -103.81,-18.35 -133.04,-60.26 -17.14,-24.59 -25.76,-58.88 -9.76,-84.21 10.7,-16.92 31.71,-26.67 51.54,-23.91 19.82,2.76 37.37,17.89 43.02,37.09 0.33,-23.37 22.4,-44.18 45.75,-43.14 23.35,1.05 43.45,23.76 41.68,47.07 6.16,-15.27 13.84,-31.08 27.81,-39.82 13.96,-8.74 35.82,-6.64 43.02,8.17 8.77,-10.41 21.11,-21.03 34.34,-17.8 11.26,2.75 18.01,15.22 17.87,26.81 -0.13,11.6 -5.57,22.42 -11.35,32.47 -25.66,44.62 -63.47,85.61 -113.12,99.15"
         style="fill:#33535f;fill-opacity:1;fill-rule:nonzero;stroke:none"
         id="path340" />
      <path
         d="m 5095.67,3047.84 c 23.56,-40.79 23.97,-93.98 1.04,-135.13 -7.25,-13.03 -16.7,-25.03 -21.28,-39.22 -4.58,-14.19 -2.84,-31.96 9.11,-40.88 7.32,-5.46 18.49,-8.21 20.23,-17.17 0.87,-4.46 -1.13,-8.91 -2.76,-13.14 -6.87,-17.86 -7.71,-37.98 -2.35,-56.35 3.56,-12.22 4.13,-27.34 33.23,-40.34 14.46,-6.47 22.29,-17.47 53.6,-9.42 54.8,14.1 35.45,136.53 30.34,192.9 -5.11,56.36 -31.37,156.73 -63,203.67"
         style="fill:#33535f;fill-opacity:1;fill-rule:nonzero;stroke:none"
         id="path342" />
      <path
         d="m 4970.63,2663.75 c 0,0 -56.8,-212.07 -20.6,-191.07 36.2,21.01 211.93,160.67 211.93,160.67 l -88.86,67.05 -102.47,-36.65"
         style="fill:#ef8068;fill-opacity:1;fill-rule:nonzero;stroke:none"
         id="path344" />
      <path
         d="m 4435.75,2298.46 c -6.29,20.76 -84.88,63.58 -72.99,75.13 15.49,15.05 80.01,-48.4 85.86,-53.36 5.67,-4.82 12.99,3.51 7.47,7.7 -7.91,6.01 -89.59,71.33 -74.51,86.26 8.36,8.27 21.51,-8.56 21.51,-8.56 0,0 72.05,-66.87 78.94,-59.58 6.99,7.4 -34.04,48.12 -48.81,60.85 -14.59,12.58 -14.73,24.79 -3.96,26.77 7.35,1.36 53.49,-36.54 67.82,-49.48 14.31,-12.93 52.99,-49.13 48.01,-15.44 l -0.16,1.55 c -5.81,33.05 0.66,60.44 7.93,67.09 7.08,6.48 18.13,0.4 18.69,-9.26 0.19,-1.55 0.21,-3.16 -0.27,-4.87 l -0.44,-2.5 c -0.87,-9.58 0.62,-23.52 2.18,-34.3 1.49,-10.2 4.62,-20.1 9.44,-29.22 5.55,-10.53 10.75,-19.41 15.31,-26.74 52.56,-29.17 203.74,-106.19 355.34,-118.27 27.36,-2.19 148.31,188.72 148.31,188.72 l 179.71,-85.02 c -18.5,-31.45 -50.27,-99.59 -143.25,-225.94 -151.69,-206.14 -625.92,137.39 -625.92,137.39 v 0 l -4.45,2.2 c -37.87,19.49 -82.9,43.68 -104.81,59.17 -40.77,28.82 -38.33,32.59 -34.27,36.88 10.91,11.51 73.6,-47.92 67.32,-27.17"
         style="fill:#ef8068;fill-opacity:1;fill-rule:nonzero;stroke:none"
         id="path346" />
      <path
         d="m 1706.04,100.43 -0.96,82.05 -153.7,-0.8 0.12,-120.0589 9.54,-0.5508 c 42.42,-2.1406 215.86,-7.8594 244.17,0.8789 31.57,9.7617 -99.17,38.4808 -99.17,38.4808"
         style="fill:#33535f;fill-opacity:1;fill-rule:nonzero;stroke:none"
         id="path348" />
      <path
         d="m 1549.32,65.1523 c 0,-0.0703 0.91,-0.1601 2.64,-0.2734 2.28,-0.1289 4.78,-0.2773 7.6,-0.4297 7.59,-0.2969 16.92,-0.6484 27.94,-1.0781 23.59,-0.7305 56.21,-1.332 92.24,-1.1914 36.04,0.1523 68.65,0.9922 92.24,1.9023 11.01,0.5078 20.34,0.9493 27.93,1.2891 2.82,0.1875 5.32,0.3477 7.59,0.4883 1.73,0.1328 2.65,0.2304 2.64,0.289 0,0.0625 -0.92,0.0938 -2.65,0.0821 -2.28,-0.0391 -4.78,-0.0821 -7.61,-0.1211 -7.59,-0.1992 -16.92,-0.4297 -27.94,-0.7071 -23.59,-0.582 -56.19,-1.2109 -92.21,-1.3515 -36,-0.1406 -68.61,0.2383 -92.2,0.6406 -11.03,0.1875 -20.36,0.3477 -27.95,0.4883 -2.83,0.0195 -5.32,0.0508 -7.61,0.0703 -1.74,0 -2.65,-0.0391 -2.65,-0.0977"
         style="fill:#17282f;fill-opacity:1;fill-rule:nonzero;stroke:none"
         id="path350" />
      <path
         d="m 1756.41,61.8789 c 0.57,-0.0703 0.97,6.6016 5.15,13.3594 4.07,6.8203 9.8,10.2617 9.48,10.7305 -0.12,0.4726 -6.69,-2.4571 -11.07,-9.7696 -4.46,-7.25 -4.02,-14.4375 -3.56,-14.3203"
         style="fill:#17282f;fill-opacity:1;fill-rule:nonzero;stroke:none"
         id="path352" />
      <path
         d="m 1710.95,84.6719 c 0.44,-0.2735 2.59,2.3789 4.82,5.9297 2.22,3.5273 3.67,6.6289 3.24,6.8984 -0.44,0.2813 -2.59,-2.3711 -4.82,-5.918 -2.23,-3.5429 -3.68,-6.6406 -3.24,-6.9101"
         style="fill:#17282f;fill-opacity:1;fill-rule:nonzero;stroke:none"
         id="path354" />
      <path
         d="m 1698.47,91.1914 c 0.35,-0.3828 2.77,1.25 5.4,3.6484 2.64,2.3907 4.5,4.629 4.15,5.0196 -0.34,0.3786 -2.76,-1.25 -5.4,-3.6485 -2.63,-2.3789 -4.49,-4.6406 -4.15,-5.0195"
         style="fill:#17282f;fill-opacity:1;fill-rule:nonzero;stroke:none"
         id="path356" />
      <path
         d="m 1690.54,105.672 c 0,-0.52 3.59,-0.961 8.03,-0.992 4.43,-0.032 8.03,0.371 8.03,0.879 0,0.523 -3.59,0.961 -8.03,0.992 -4.43,0.019 -8.03,-0.371 -8.03,-0.879"
         style="fill:#17282f;fill-opacity:1;fill-rule:nonzero;stroke:none"
         id="path358" />
      <path
         d="m 1687.79,115.879 c -0.17,-0.457 3.75,-2.207 8.96,-2.559 5.21,-0.379 9.34,0.801 9.24,1.282 -0.09,0.527 -4.16,0.218 -9.1,0.578 -4.96,0.332 -8.94,1.222 -9.1,0.699"
         style="fill:#17282f;fill-opacity:1;fill-rule:nonzero;stroke:none"
         id="path360" />
      <path
         d="m 1716.1,98.1094 c -0.01,-0.2071 3.78,-0.6602 9.88,0.1094 3.04,0.3828 6.63,1.1132 10.5,2.3632 1.92,0.688 3.94,1.219 6.01,2.508 0.97,0.652 2.06,1.582 2.43,3.07 0.4,1.492 -0.4,3.149 -1.52,3.949 -9.46,4.84 -18.89,-0.507 -22.37,-5.398 -1.92,-2.5 -2.79,-4.9297 -3.19,-6.6094 -0.39,-1.6914 -0.35,-2.6524 -0.24,-2.6719 0.34,-0.1289 0.65,3.9023 4.46,8.4493 1.88,2.242 4.73,4.41 8.41,5.519 3.48,1.051 8.44,1.352 11.77,-0.75 1.58,-1.148 0.97,-2.988 -0.76,-4.046 -1.63,-1.051 -3.73,-1.7 -5.55,-2.391 -3.73,-1.313 -7.2,-2.16 -10.15,-2.6993 -5.92,-1.0703 -9.68,-1.1015 -9.68,-1.4023"
         style="fill:#17282f;fill-opacity:1;fill-rule:nonzero;stroke:none"
         id="path362" />
      <path
         d="m 1718.66,97.6289 c 0.14,-0.1094 1.59,2.4221 1.11,6.8631 -0.25,2.18 -1.06,4.758 -2.73,7.199 -1.76,2.188 -4.01,5.2 -8.25,5 -2.29,-0.3 -3.39,-2.91 -3.02,-4.57 0.19,-1.742 0.97,-3.211 1.7,-4.41 1.48,-2.449 3.15,-4.449 4.69,-5.949 3.11,-3.0198 5.57,-4.1604 5.67,-3.9729 0.17,0.2422 -1.97,1.7617 -4.71,4.8709 -1.36,1.559 -2.84,3.531 -4.16,5.91 -1.37,2.09 -2.31,5.828 0.16,6.289 2.47,0.25 5.01,-2.199 6.53,-4.16 1.56,-2.129 2.43,-4.437 2.82,-6.41 0.77,-4.019 -0.13,-6.5898 0.19,-6.6601"
         style="fill:#17282f;fill-opacity:1;fill-rule:nonzero;stroke:none"
         id="path364" />
      <path
         d="m 1552.26,107.219 c 0.04,-0.348 4.4,0.441 11.35,-0.348 6.89,-0.742 16.47,-3.519 24.83,-10.1015 8.34,-6.5976 13.27,-15.2812 15.58,-21.8086 2.38,-6.5703 2.63,-11 2.97,-10.9492 0.12,0.0078 0.16,1.1094 -0.01,3.0899 -0.17,1.9882 -0.66,4.8672 -1.72,8.2773 -2.04,6.8203 -6.97,15.9727 -15.67,22.8516 -8.71,6.8715 -18.75,9.5395 -25.85,9.9495 -3.58,0.23 -6.49,0.039 -8.46,-0.258 -1.97,-0.293 -3.04,-0.59 -3.02,-0.703"
         style="fill:#17282f;fill-opacity:1;fill-rule:nonzero;stroke:none"
         id="path366" />
      <path
         d="m 1567.9,171.25 c -0.52,0 -1.05,-14.129 -1.19,-31.57 -0.14,-17.45 0.16,-31.59 0.68,-31.598 0.51,0 1.04,14.129 1.18,31.578 0.14,17.442 -0.16,31.582 -0.67,31.59"
         style="fill:#17282f;fill-opacity:1;fill-rule:nonzero;stroke:none"
         id="path368" />
      <path
         d="m 1626.5,78.1992 c -0.06,-0.4804 9.96,-2.0781 22.45,-2.1172 12.49,-0.082 22.53,1.418 22.47,1.8985 -0.06,0.539 -10.09,-0.1211 -22.46,-0.0391 -12.38,0.0391 -22.4,0.8008 -22.46,0.2578"
         style="fill:#17282f;fill-opacity:1;fill-rule:nonzero;stroke:none"
         id="path370" />
      <path
         d="m 1596.37,78.1094 c -0.37,-0.3789 0.84,-2.1289 1.87,-4.4297 1.07,-2.2774 1.61,-4.3281 2.14,-4.2891 0.49,0 0.78,2.4297 -0.44,5.0703 -1.21,2.6485 -3.24,4.0196 -3.57,3.6485"
         style="fill:#17282f;fill-opacity:1;fill-rule:nonzero;stroke:none"
         id="path372" />
      <path
         d="m 1584.96,92.1797 c -0.37,-0.3594 0.63,-1.9492 2.23,-3.5586 1.59,-1.6094 3.19,-2.6094 3.55,-2.25 0.36,0.3594 -0.63,1.9609 -2.23,3.5586 -1.6,1.6094 -3.19,2.6094 -3.55,2.25"
         style="fill:#17282f;fill-opacity:1;fill-rule:nonzero;stroke:none"
         id="path374" />
      <path
         d="m 1568.68,98.5586 c 0.11,-0.5195 2.16,-0.4883 4.42,-1.2695 2.28,-0.7383 3.89,-1.9883 4.29,-1.6289 0.41,0.2812 -0.89,2.4609 -3.7,3.3906 -2.81,0.9414 -5.16,-0.0117 -5.01,-0.4922"
         style="fill:#17282f;fill-opacity:1;fill-rule:nonzero;stroke:none"
         id="path376" />
      <path
         d="m 1557.11,101.551 c -0.19,-0.469 0.7,-1.262 1.97,-1.7502 1.28,-0.4922 2.47,-0.4922 2.65,-0.0117 0.18,0.4809 -0.7,1.2619 -1.98,1.7499 -1.28,0.492 -2.46,0.492 -2.64,0.012"
         style="fill:#17282f;fill-opacity:1;fill-rule:nonzero;stroke:none"
         id="path378" />
      <path
         d="m 811.074,218.789 43.418,69.621 -129.902,82.172 -64.598,-101.191 7.723,-5.61 c 34.59,-24.672 177.598,-122.972 206.156,-130.859 31.852,-8.801 -62.797,85.867 -62.797,85.867"
         style="fill:#33535f;fill-opacity:1;fill-rule:nonzero;stroke:none"
         id="path380" />
      <path
         d="m 660.051,273.531 c -0.039,-0.051 0.676,-0.621 2.074,-1.652 1.852,-1.34 3.883,-2.809 6.168,-4.457 6.238,-4.332 13.91,-9.66 22.957,-15.953 19.477,-13.348 46.637,-31.43 77.055,-50.727 30.437,-19.301 58.363,-36.172 78.73,-48.113 9.547,-5.508 17.641,-10.168 24.223,-13.969 2.469,-1.359 4.652,-2.57 6.648,-3.68 1.532,-0.828 2.356,-1.23 2.383,-1.179 0.035,0.058 -0.723,0.578 -2.191,1.5 -1.946,1.211 -4.075,2.508 -6.477,3.988 -6.492,3.93 -14.48,8.77 -23.91,14.473 -20.191,12.23 -47.988,29.269 -78.41,48.558 -30.399,19.282 -57.656,37.172 -77.313,50.231 -9.179,6.097 -16.957,11.269 -23.285,15.48 -2.359,1.539 -4.453,2.91 -6.363,4.149 -1.469,0.941 -2.254,1.41 -2.289,1.351"
         style="fill:#17282f;fill-opacity:1;fill-rule:nonzero;stroke:none"
         id="path382" />
      <path
         d="m 832.719,159.16 c 0.445,-0.359 4.386,5.039 11.551,8.481 7.097,3.55 13.785,3.371 13.761,3.929 0.157,0.45 -6.957,1.539 -14.59,-2.261 -7.664,-3.707 -11.171,-9.989 -10.722,-10.149"
         style="fill:#17282f;fill-opacity:1;fill-rule:nonzero;stroke:none"
         id="path384" />
      <path
         d="m 806.719,202.859 c 0.219,-0.461 3.469,0.61 7.25,2.403 3.785,1.777 6.676,3.609 6.453,4.07 -0.215,0.469 -3.461,-0.613 -7.246,-2.383 -3.785,-1.789 -6.676,-3.617 -6.457,-4.09"
         style="fill:#17282f;fill-opacity:1;fill-rule:nonzero;stroke:none"
         id="path386" />
      <path
         d="m 799.727,215.09 c 0.089,-0.508 3.003,-0.442 6.507,0.16 3.512,0.582 6.289,1.48 6.204,1.988 -0.083,0.512 -3,0.434 -6.508,-0.156 -3.512,-0.594 -6.285,-1.492 -6.203,-1.992"
         style="fill:#17282f;fill-opacity:1;fill-rule:nonzero;stroke:none"
         id="path388" />
      <path
         d="m 800.84,231.551 c -0.277,-0.43 2.512,-2.742 6.23,-5.153 3.723,-2.41 6.965,-4.019 7.243,-3.597 0.277,0.429 -2.512,2.738 -6.227,5.16 -3.719,2.41 -6.961,4.019 -7.246,3.59"
         style="fill:#17282f;fill-opacity:1;fill-rule:nonzero;stroke:none"
         id="path390" />
      <path
         d="m 804.035,241.641 c -0.39,-0.301 1.969,-3.879 6.164,-6.993 4.188,-3.117 8.297,-4.359 8.469,-3.898 0.211,0.488 -3.383,2.422 -7.355,5.391 -3.993,2.949 -6.864,5.839 -7.278,5.5"
         style="fill:#17282f;fill-opacity:1;fill-rule:nonzero;stroke:none"
         id="path392" />
      <path
         d="m 818.297,211.41 c -0.117,-0.18 2.836,-2.601 8.379,-5.238 2.762,-1.313 6.191,-2.633 10.121,-3.672 2,-0.449 3.969,-1.09 6.418,-1.121 1.172,0.031 2.578,0.223 3.707,1.293 1.137,1.019 1.355,2.848 0.848,4.129 -5.364,9.187 -16.192,9.75 -21.762,7.508 -2.965,-1.079 -5.004,-2.649 -6.246,-3.848 -1.242,-1.211 -1.731,-2.039 -1.645,-2.109 0.223,-0.301 2.645,2.918 8.309,4.707 2.785,0.871 6.363,1.16 10.058,0.121 3.5,-1 7.848,-3.418 9.52,-6.981 0.699,-1.82 -0.805,-3.051 -2.828,-2.988 -1.934,-0.02 -4.055,0.559 -5.961,0.961 -3.844,0.91 -7.235,2.066 -10.008,3.207 -5.562,2.281 -8.75,4.281 -8.91,4.031"
         style="fill:#17282f;fill-opacity:1;fill-rule:nonzero;stroke:none"
         id="path394" />
      <path
         d="m 820.195,209.621 c 0.067,-0.16 2.645,1.18 4.633,5.188 0.965,1.972 1.672,4.582 1.582,7.543 -0.301,2.777 -0.578,6.527 -4.25,8.648 -2.09,0.969 -4.43,-0.629 -5.012,-2.23 -0.777,-1.551 -0.914,-3.219 -0.941,-4.622 -0.082,-2.867 0.254,-5.449 0.742,-7.546 0.996,-4.211 2.442,-6.5 2.637,-6.403 0.273,0.11 -0.719,2.563 -1.344,6.653 -0.308,2.046 -0.488,4.507 -0.32,7.218 -0.031,2.481 1.191,6.16 3.523,5.211 2.219,-1.121 3.032,-4.551 3.254,-7.019 0.164,-2.641 -0.34,-5.051 -1.074,-6.93 -1.516,-3.793 -3.664,-5.461 -3.43,-5.711"
         style="fill:#17282f;fill-opacity:1;fill-rule:nonzero;stroke:none"
         id="path396" />
      <path
         d="m 685.199,307.379 c -0.152,-0.309 3.946,-2 9.375,-6.41 5.406,-4.328 11.981,-11.84 15.465,-21.887 3.477,-10.051 2.949,-20.023 1.379,-26.762 -1.543,-6.82 -3.723,-10.691 -3.406,-10.832 0.097,-0.058 0.738,0.852 1.664,2.614 0.926,1.769 2.062,4.449 3.019,7.898 1.946,6.84 2.731,17.211 -0.894,27.699 -3.637,10.481 -10.656,18.133 -16.418,22.313 -2.887,2.117 -5.438,3.527 -7.258,4.34 -1.82,0.82 -2.879,1.128 -2.926,1.027"
         style="fill:#17282f;fill-opacity:1;fill-rule:nonzero;stroke:none"
         id="path398" />
      <path
         d="m 732.883,352.891 c -0.43,0.289 -8.496,-11.34 -18.016,-25.95 -9.523,-14.621 -16.887,-26.703 -16.457,-26.992 0.43,-0.269 8.496,11.352 18.016,25.973 9.515,14.609 16.89,26.687 16.457,26.969"
         style="fill:#17282f;fill-opacity:1;fill-rule:nonzero;stroke:none"
         id="path400" />
      <path
         d="m 732.094,242.93 c -0.313,-0.371 7.265,-7.121 17.765,-13.879 10.481,-6.813 19.743,-10.949 19.957,-10.512 0.243,0.481 -8.566,5.332 -18.945,12.07 -10.398,6.7 -18.437,12.743 -18.777,12.321"
         style="fill:#17282f;fill-opacity:1;fill-rule:nonzero;stroke:none"
         id="path402" />
      <path
         d="m 706.672,259.082 c -0.52,-0.113 -0.445,-2.23 -0.813,-4.723 -0.332,-2.507 -0.984,-4.519 -0.519,-4.777 0.422,-0.262 1.969,1.629 2.367,4.508 0.41,2.879 -0.559,5.129 -1.035,4.992"
         style="fill:#17282f;fill-opacity:1;fill-rule:nonzero;stroke:none"
         id="path404" />
      <path
         d="m 704.641,277.09 c -0.504,-0.11 -0.524,-1.988 -0.039,-4.199 0.476,-2.211 1.273,-3.911 1.777,-3.809 0.504,0.109 0.519,2 0.039,4.199 -0.48,2.219 -1.277,3.93 -1.777,3.809"
         style="fill:#17282f;fill-opacity:1;fill-rule:nonzero;stroke:none"
         id="path406" />
      <path
         d="m 694.367,291.238 c -0.187,-0.496 1.547,-1.566 3.031,-3.449 1.524,-1.848 2.211,-3.769 2.739,-3.687 0.5,0.007 0.578,2.558 -1.293,4.859 -1.852,2.301 -4.352,2.769 -4.477,2.277"
         style="fill:#17282f;fill-opacity:1;fill-rule:nonzero;stroke:none"
         id="path408" />
      <path
         d="m 686.227,300 c -0.411,-0.301 -0.09,-1.441 0.722,-2.551 0.817,-1.09 1.809,-1.73 2.223,-1.429 0.414,0.3 0.09,1.441 -0.723,2.55 -0.812,1.09 -1.808,1.731 -2.222,1.43"
         style="fill:#17282f;fill-opacity:1;fill-rule:nonzero;stroke:none"
         id="path410" />
      <path
         d="m 1406.4,1810.24 c 0,0 130.42,-866.451 111.45,-908.318 C 1498.87,860.031 890.012,190.449 890.012,190.449 l -224.391,148.68 c 0,0 531.839,669.601 527.829,685.691 -4.03,16.07 -201.552,855.1 -201.552,855.1 l 414.502,-69.68"
         style="fill:#f03d5f;fill-opacity:1;fill-rule:nonzero;stroke:none"
         id="path412" />
      <path
         d="m 917.863,1891.8 -7.883,-32.16 c -23.218,-94.73 -8.968,-194.77 39.766,-279.24 L 1303.38,967.422 c 25.05,-43.41 43.32,-90.402 54.19,-139.332 l 159.64,-708.02 h 246.32 c 0,-14.75 -63.72,583.239 -95.65,781.852 -24.09,149.778 -224.53,614.738 -321.63,834.288 l 60.15,74.03 -104.5,17.44 -384.037,64.12"
         style="fill:#f03d5f;fill-opacity:1;fill-rule:nonzero;stroke:none"
         id="path414" />
      <path
         d="m 1353.89,1737.89 c 0.32,0.15 2.25,-3.33 5.44,-9.74 3.21,-6.42 7.63,-15.79 12.92,-27.46 10.59,-23.33 24.49,-55.9 38.67,-92.35 14.17,-36.45 25.92,-69.86 33.88,-94.22 3.98,-12.17 7.06,-22.08 9.03,-28.97 1.98,-6.9 2.9,-10.75 2.57,-10.87 -0.34,-0.11 -1.93,3.53 -4.5,10.22 -2.89,7.77 -6.42,17.25 -10.58,28.41 -8.83,24.02 -21.11,57.16 -35.25,93.55 -14.15,36.36 -27.49,69.09 -37.2,92.77 -4.47,11.04 -8.28,20.42 -11.39,28.1 -2.63,6.66 -3.92,10.42 -3.59,10.56"
         style="fill:#17282f;fill-opacity:1;fill-rule:nonzero;stroke:none"
         id="path416" />
      <path
         d="m 1382.96,710.199 c -0.18,-0.019 -0.72,2.352 -1.6,6.903 -0.91,5.058 -2.1,11.668 -3.58,19.898 -0.74,4.379 -1.56,9.172 -2.45,14.391 -1.17,5.238 -2.42,10.898 -3.77,16.949 -2.73,12.16 -5.52,26.07 -9.94,41.109 -2.05,7.582 -4.21,15.5 -6.45,23.75 -2.6,8.16 -5.3,16.641 -8.09,25.41 -5.26,17.661 -12.57,35.981 -19.56,55.473 -15.19,38.566 -33.66,80.27 -55.23,122.978 -43.57,85.29 -90,158.7 -124.28,211.28 -17.08,25.81 -31.01,46.88 -41.03,62.03 -4.6,6.99 -8.29,12.6 -11.12,16.9 -2.5,3.89 -3.74,5.99 -3.59,6.09 0.14,0.11 1.67,-1.79 4.44,-5.5 3.04,-4.15 7,-9.58 11.94,-16.33 10.29,-14.25 24.87,-35.09 42.43,-61.16 35.1,-52.11 82.13,-125.37 125.85,-210.95 21.65,-42.869 40.06,-84.799 55.07,-123.619 6.9,-19.641 14.08,-38.071 19.2,-55.891 2.7,-8.828 5.31,-17.379 7.83,-25.601 2.14,-8.309 4.19,-16.289 6.16,-23.938 4.21,-15.16 6.76,-29.191 9.22,-41.441 1.2,-6.11 2.32,-11.809 3.36,-17.09 0.73,-5.258 1.41,-10.098 2.02,-14.508 1.08,-8.301 1.94,-14.98 2.61,-20.094 0.54,-4.59 0.74,-7.008 0.56,-7.039"
         style="fill:#17282f;fill-opacity:1;fill-rule:nonzero;stroke:none"
         id="path418" />
      <path
         d="m 922.926,226.289 c -0.137,-0.34 -3.781,0.883 -10.274,3.371 -6.539,2.391 -15.703,6.602 -26.754,12.309 -22.187,11.34 -50.996,30.281 -81.328,52.89 -30.34,22.61 -57.605,43.161 -78.207,56.801 -20.511,13.75 -33.906,21.192 -33.496,21.961 0.164,0.32 3.672,-1.242 9.891,-4.351 6.262,-3.04 15.008,-8.02 25.597,-14.508 21.247,-12.942 49.028,-33.153 79.313,-55.711 30.277,-22.563 58.461,-41.781 79.992,-53.84 21.445,-12.191 35.617,-18.07 35.266,-18.922"
         style="fill:#17282f;fill-opacity:1;fill-rule:nonzero;stroke:none"
         id="path420" />
      <path
         d="m 1762.95,156.801 c -0.01,-0.36 -3.66,-0.551 -10.24,-0.59 -7.74,0.059 -17.01,0.129 -27.84,0.211 -24.83,0.199 -56.62,0.469 -91.78,0.769 -35.17,-0.222 -66.97,-0.421 -91.8,-0.582 -10.83,-0.05 -20.1,-0.089 -27.84,-0.129 -6.57,0.051 -10.22,0.239 -10.24,0.602 -0.01,0.359 3.6,0.848 10.16,1.43 6.56,0.578 16.06,1.199 27.81,1.789 23.5,1.187 56,2.121 91.92,2.09 35.9,-0.039 68.39,-1.059 91.89,-2.301 11.75,-0.621 21.25,-1.25 27.81,-1.848 6.56,-0.59 10.17,-1.094 10.15,-1.441"
         style="fill:#17282f;fill-opacity:1;fill-rule:nonzero;stroke:none"
         id="path422" />
      <path
         d="m 1080.1,2776.24 c -21.56,-2.1 -44.19,-0.55 -63.34,9.56 -19.151,10.12 -34.049,30.19 -33.369,51.84 0.394,12.68 5.89,25.18 3.797,37.68 -2.102,12.57 -11.395,22.51 -17.372,33.76 -14.949,28.1 -6.543,66.47 18.782,85.76 13.102,9.97 29.842,15.21 40.822,27.48 13,14.52 15.08,35.52 23.02,53.33 11.44,25.68 36.45,44.85 64.23,49.22 15.32,2.41 31.38,0.64 46.08,5.61 12.57,4.25 22.97,13.05 34.08,20.3 34.24,22.39 77.52,30.5 117.56,22.04 17.56,-3.72 34.93,-10.79 47.65,-23.45 14.27,-14.2 32.73,-29.59 37.87,-49.05 6.07,-22.95 -1.36,-51.75 -7.53,-74.68 -6.16,-22.92 -24.57,-43.9 -48.16,-46.68"
         style="fill:#17282f;fill-opacity:1;fill-rule:nonzero;stroke:none"
         id="path424" />
      <path
         d="m 1075.05,2599.4 187.79,-2.66 c 3.21,21.65 9.58,105.99 9.58,105.99 0,0 78.69,4.75 86.95,82.2 8.25,77.45 11.58,256.76 11.58,256.76 -86.13,47.03 -190.95,43.76 -273.99,-8.54 l -12.32,-7.76 -9.59,-425.99"
         style="fill:#f8a58d;fill-opacity:1;fill-rule:nonzero;stroke:none"
         id="path426" />
      <path
         d="m 1278.67,2835.43 c 0,0.84 6.74,1.55 17.61,2.03 2.83,0.04 5.08,0.47 5.42,1.95 0.66,1.64 -0.14,4.73 -1.25,8.18 -2.08,7.33 -4.19,14.74 -6.4,22.5 -8.76,32.02 -14.53,58.32 -12.91,58.76 1.63,0.45 10.04,-25.14 18.8,-57.15 2.05,-7.81 4,-15.26 5.93,-22.62 0.73,-3.33 2.31,-7.28 0.44,-11.76 -0.99,-2.23 -3.35,-3.69 -5.24,-4 -1.89,-0.39 -3.47,-0.24 -4.82,-0.18 -10.87,0.63 -17.59,1.44 -17.58,2.29"
         style="fill:#17282f;fill-opacity:1;fill-rule:nonzero;stroke:none"
         id="path428" />
      <path
         d="m 1272.66,2703.83 c 0,0 -49.38,0.63 -98.39,38.25 0,0 18.65,-58.05 96.67,-58.36 l 1.72,20.11"
         style="fill:#f68260;fill-opacity:1;fill-rule:nonzero;stroke:none"
         id="path430" />
      <path
         d="m 1085.59,2943.87 c -1.54,0.64 -53.09,9.04 -50.17,-52.25 2.92,-61.28 63.84,-38.06 63.87,-36.31 0.02,1.77 -13.7,88.56 -13.7,88.56"
         style="fill:#f8a58d;fill-opacity:1;fill-rule:nonzero;stroke:none"
         id="path432" />
      <path
         d="m 1079.49,2875.93 c -0.28,0.18 -1.04,-0.8 -2.8,-1.71 -1.72,-0.89 -4.72,-1.59 -7.97,-0.55 -6.59,2.07 -12.53,12.09 -13.35,23.12 -0.42,5.57 0.49,10.94 2.26,15.43 1.65,4.57 4.41,7.84 7.64,8.58 3.21,0.9 5.6,-0.94 6.44,-2.63 0.9,-1.67 0.57,-2.91 0.9,-3 0.18,-0.15 1.27,1.08 0.65,3.59 -0.31,1.21 -1.1,2.62 -2.59,3.73 -1.53,1.13 -3.72,1.63 -5.98,1.28 -4.71,-0.56 -8.76,-5.11 -10.7,-10.04 -2.2,-4.96 -3.36,-11 -2.89,-17.25 0.98,-12.33 7.86,-23.59 16.84,-25.73 4.36,-0.91 7.9,0.55 9.68,2.09 1.83,1.6 2.08,2.99 1.87,3.09"
         style="fill:#f68260;fill-opacity:1;fill-rule:nonzero;stroke:none"
         id="path434" />
      <path
         d="m 1209,2945.38 c -0.84,1.09 0.62,4 4.59,7.04 3.92,3.04 10.48,5.88 18.12,6.41 7.66,0.52 14.54,-1.4 18.84,-3.87 4.35,-2.47 6.19,-5.16 5.51,-6.35 -1.54,-2.53 -11.47,0.85 -23.63,-0.17 -12.18,-0.65 -21.56,-5.36 -23.43,-3.06"
         style="fill:#17282f;fill-opacity:1;fill-rule:nonzero;stroke:none"
         id="path436" />
      <path
         d="m 1317.7,2944.71 c -0.54,2.79 7.86,6.7 18.87,6.65 11.02,-0.02 19.39,-3.98 18.84,-6.76 -0.54,-2.86 -8.93,-3.65 -18.87,-3.66 -9.93,0.06 -18.32,0.9 -18.84,3.77"
         style="fill:#17282f;fill-opacity:1;fill-rule:nonzero;stroke:none"
         id="path438" />
      <path
         d="m 1066.18,3006.59 c 2.91,-18.84 5.82,-37.68 8.73,-56.52 1.37,-8.87 2.98,-18.27 8.96,-24.96 9.9,-11.04 28.17,-10.07 40.98,-2.61 18.7,10.89 28.98,31.75 36.86,51.91 7.89,20.16 14.9,41.58 30.13,56.96 21.14,-23.13 58.11,-29.94 86.11,-15.86 12.49,6.28 22.9,16.02 34.89,23.22 11.98,7.19 26.98,11.75 39.9,6.4 7.09,-2.94 13.46,-8.76 21.12,-8.42 5.83,0.26 11.05,4.31 13.76,9.46 2.72,5.16 3.21,11.25 2.53,17.04 -2.55,21.67 -20.3,38.84 -39.89,48.46 -27.95,13.72 -60.11,15.57 -91.25,15.66 -29.56,0.07 -59.39,-1.26 -88,-8.71 -28.6,-7.46 -56.13,-21.45 -75.81,-43.51 -19.68,-22.05 -30.66,-52.79 -25.13,-81.82"
         style="fill:#17282f;fill-opacity:1;fill-rule:nonzero;stroke:none"
         id="path440" />
      <path
         d="m 1310.62,3068.56 c 3.89,-19.68 14.43,-37.97 29.49,-51.2 7.29,-6.41 16.25,-11.85 25.96,-11.64 15.75,0.34 27.91,16.37 28.29,32.12 0.38,15.76 -8.35,30.43 -19.17,41.88 -10.38,10.98 -23.92,20.23 -39.02,20.59 -15.1,0.37 -31,-11.05 -31.19,-26.15"
         style="fill:#17282f;fill-opacity:1;fill-rule:nonzero;stroke:none"
         id="path442" />
      <path
         d="m 1220.3,2916.37 c -0.08,-5.19 4.25,-9.53 9.67,-9.72 5.41,-0.18 9.87,3.87 9.95,9.06 0.08,5.2 -4.26,9.55 -9.67,9.73 -5.42,0.19 -9.87,-3.88 -9.95,-9.07"
         style="fill:#17282f;fill-opacity:1;fill-rule:nonzero;stroke:none"
         id="path444" />
      <path
         d="m 1204.15,2927.05 c 1.24,-1.25 8.58,4.4 19.15,4.59 10.55,0.33 18.42,-4.94 19.54,-3.63 0.55,0.59 -0.73,2.88 -4.16,5.26 -3.37,2.39 -9.09,4.66 -15.68,4.5 -6.58,-0.18 -12.08,-2.71 -15.21,-5.26 -3.2,-2.56 -4.25,-4.9 -3.64,-5.46"
         style="fill:#17282f;fill-opacity:1;fill-rule:nonzero;stroke:none"
         id="path446" />
      <path
         d="m 1328.56,2916.69 c -0.08,-5.19 4.25,-9.53 9.67,-9.72 5.41,-0.18 9.87,3.87 9.95,9.06 0.08,5.19 -4.25,9.55 -9.66,9.73 -5.42,0.18 -9.88,-3.88 -9.96,-9.07"
         style="fill:#17282f;fill-opacity:1;fill-rule:nonzero;stroke:none"
         id="path448" />
      <path
         d="m 1314.53,2925.44 c 1.25,-1.26 8.59,4.4 19.15,4.59 10.56,0.33 18.43,-4.95 19.55,-3.63 0.55,0.58 -0.72,2.87 -4.17,5.26 -3.37,2.38 -9.09,4.65 -15.67,4.49 -6.59,-0.17 -12.08,-2.71 -15.21,-5.25 -3.19,-2.56 -4.25,-4.9 -3.65,-5.46"
         style="fill:#17282f;fill-opacity:1;fill-rule:nonzero;stroke:none"
         id="path450" />
      <path
         d="m 1276.13,2804.01 c 0.1,-0.64 -2.64,-1.86 -7.36,-1.57 -4.64,0.25 -11.3,2.44 -16.45,7.82 -5.15,5.39 -7.04,12.14 -7.08,16.79 -0.07,4.73 1.27,7.41 1.9,7.28 1.43,-0.01 0.34,-11.47 8.94,-20.48 8.61,-8.99 20.1,-8.41 20.05,-9.84"
         style="fill:#17282f;fill-opacity:1;fill-rule:nonzero;stroke:none"
         id="path452" />
      <path
         d="m 1311.54,2403.44 156.06,52.19 c 0,0 108.68,-257.03 136.64,-259.57 154.94,-14.14 320.71,37.23 378.84,57.54 5.9,6.63 12.63,14.58 20.14,24.32 6.43,8.36 11.31,17.8 14.58,27.84 3.96,12.15 8.56,28.52 8.29,38.28 -0.32,12.05 14.18,18.24 20.89,9.57 6.71,-8.67 8.42,-41.87 -6.87,-77.59 -15.29,-35.71 38.83,-7.3 58.75,2.7 19.91,10 82.97,38.04 90.89,34.36 11.62,-5.41 7.97,-18.85 -12.16,-28.37 -20.36,-9.64 -78.43,-42.34 -72.63,-52.6 5.69,-10.11 106.36,42.18 106.36,42.18 0,0 19.71,14.66 26.8,3.03 12.77,-20.99 -98.34,-68.7 -109.03,-72.97 -7.42,-2.97 -1.53,-14.35 6.27,-10.73 8.03,3.73 99.2,54.49 112.42,33.25 10.13,-16.3 -91.04,-40.1 -104.1,-61.13 -13.06,-21.03 74.89,25.84 83.93,9.88 3.37,-5.95 5.06,-10.85 -49.34,-30.48 -26.39,-9.52 -76.16,-21.26 -121.23,-30.95 l 0.2,-0.56 c 0,0 -559.87,-250.54 -660.55,-8.76 -102.57,246.33 -85.15,298.57 -85.15,298.57"
         style="fill:#f68260;fill-opacity:1;fill-rule:nonzero;stroke:none"
         id="path454" />
      <path
         d="M 1071.63,2619.69 Z M 1519.71,2371 c -62.45,146.29 -144.33,203.6 -187.5,224.75 -15.11,7.4 -31.56,11.53 -48.35,12.44 l -5.19,25.13 -207.04,18.64 -5.08,-31.99 -30.37,1.64 c 0,0 -178.5,-17.85 -178.817,-224.59 -0.144,-96.7 52.071,-190.79 70.5,-236.88 11.492,-96.43 -29.883,-271.25 -28.765,-313.91 l 507.302,-35.99 21.47,317.11 -4.74,29.74 166.99,51.14 -70.41,162.77"
         style="fill:#e7e8e5;fill-opacity:1;fill-rule:nonzero;stroke:none"
         id="path456" />
      <path
         d="m 2673.75,2648.14 c -13.97,-130.71 -78,-248.16 -180.3,-330.7 -102.3,-82.55 -230.59,-120.35 -361.34,-106.35 -269.82,28.84 -465.88,271.82 -437.04,541.64 28.84,269.83 271.73,465.87 541.65,437.05 130.7,-13.97 248.15,-78.01 330.7,-180.31 82.54,-102.31 120.31,-230.63 106.33,-361.33 z m -30.63,422.41 c -98.87,122.53 -239.53,199.22 -396.06,215.95 -323.15,34.54 -614.16,-200.28 -648.71,-523.43 v 0 c -21.2,-198.31 59.14,-384.39 198.98,-506.64 l -515.94,-605.46 74.04,-63.1 520.28,610.56 c 72.52,-44.74 155.84,-74.41 246.07,-84.06 21.33,-2.28 42.59,-3.41 63.76,-3.41 134.08,0 263.17,45.39 369,130.78 122.52,98.86 199.21,239.52 215.93,396.05 16.74,156.55 -28.49,310.24 -127.35,432.76"
         style="fill:#17282f;fill-opacity:1;fill-rule:nonzero;stroke:none"
         id="path458" />
      <path
         d="m 2632.22,2689.66 c -13.97,-130.7 -78,-248.15 -180.31,-330.69 -102.3,-82.55 -230.58,-120.35 -361.33,-106.35 -269.83,28.84 -465.88,271.82 -437.04,541.64 28.84,269.82 271.72,465.87 541.65,437.05 130.7,-13.97 248.15,-78.01 330.69,-180.31 82.54,-102.3 120.32,-230.62 106.34,-361.34 z m -30.63,422.43 c -98.87,122.52 -239.53,199.21 -396.07,215.94 -323.15,34.54 -614.16,-200.28 -648.7,-523.43 v 0 c -21.2,-198.3 59.14,-384.39 198.98,-506.64 l -522.18,-610.42 79.15,-63.31 521.42,615.74 c 72.51,-44.75 155.83,-74.43 246.05,-84.07 21.34,-2.28 42.6,-3.41 63.76,-3.41 134.09,0 263.17,45.39 369,130.78 122.53,98.86 199.21,239.52 215.94,396.06 16.74,156.54 -28.5,310.23 -127.35,432.76"
         style="fill:#33535f;fill-opacity:1;fill-rule:nonzero;stroke:none"
         id="path460" />
      <path
         d="m 1875.41,2422.66 c -0.14,-0.11 -1.47,1.38 -3.89,4.32 -2.35,2.99 -6.04,7.26 -10.23,13.16 -8.67,11.59 -20.37,29.04 -32.85,51.77 -25.06,45.15 -51.4,113.53 -58.1,192.76 -6.77,79.25 7.66,151.11 24.74,199.84 8.47,24.51 17.06,43.69 23.65,56.57 3.13,6.52 6.05,11.34 7.86,14.69 1.88,3.31 2.95,5 3.1,4.92 0.16,-0.09 -0.59,-1.95 -2.17,-5.4 -1.51,-3.5 -4.13,-8.45 -6.96,-15.08 -6,-13.1 -14.02,-32.39 -21.98,-56.86 -16.07,-48.69 -29.75,-119.85 -23.06,-198.24 6.64,-78.36 32.12,-146.19 56.17,-191.47 11.98,-22.78 23.13,-40.44 31.26,-52.33 3.91,-6.06 7.33,-10.5 9.41,-13.69 2.14,-3.15 3.2,-4.85 3.05,-4.96"
         style="fill:#17282f;fill-opacity:1;fill-rule:nonzero;stroke:none"
         id="path462" />
      <path
         d="m 1900.02,3027.88 c 0.87,-1.21 -5.14,-6.8 -11.13,-14.67 -6.07,-7.82 -9.93,-15.06 -11.33,-14.53 -1.31,0.42 0.59,9.15 7.2,17.7 6.56,8.58 14.51,12.67 15.26,11.5"
         style="fill:#17282f;fill-opacity:1;fill-rule:nonzero;stroke:none"
         id="path464" />
      <path
         d="m 1381.5,2481.49 c 0.36,0.06 1.63,-4.85 3.63,-13.81 2.02,-8.95 4.65,-21.97 7.66,-38.09 6.05,-32.25 13.34,-77.01 19.5,-126.71 6.12,-49.71 9.94,-94.91 11.91,-127.66 1,-16.38 1.62,-29.64 1.84,-38.81 0.24,-9.18 0.2,-14.26 -0.16,-14.28 -0.36,-0.02 -1.01,5.02 -1.87,14.15 -0.91,10.12 -2.08,23.1 -3.48,38.66 -2.91,32.64 -7.3,77.68 -13.42,127.3 -6.13,49.6 -12.83,94.36 -17.94,126.72 -2.43,15.44 -4.46,28.32 -6.03,38.35 -1.39,9.06 -1.99,14.11 -1.64,14.18"
         style="fill:#17282f;fill-opacity:1;fill-rule:nonzero;stroke:none"
         id="path466" />
      <path
         d="m 1657.48,1990.27 c 0,0 -559.68,-251.11 -660.355,-9.32 -102.574,246.32 -85.152,298.57 -85.152,298.57 l 156.057,52.19 c 0,0 108.68,-257.04 136.65,-259.58 154.93,-14.14 320.71,37.24 378.83,57.54 5.9,6.63 12.64,14.58 20.15,24.32 6.42,8.36 13.13,20.41 19.71,28.65 14.79,18.51 26.48,21.6 32.94,28.9 15.46,17.49 29.58,4.71 22.86,-4.7 -6.37,-8.92 -23.33,-19.03 -38.63,-54.75 -15.29,-35.71 39.2,-18.17 60.75,-12.5 23.83,6.28 68.58,23.66 68.58,23.66 1.04,-10.48 -10.82,-31.6 -30.95,-41.12 -20.36,-9.64 -33.53,-13.94 -33.53,-13.94 0,0 41.37,5.01 42.47,-4.41 1.11,-9.43 -12.24,-79.17 -56.26,-99.89 l -34.12,-13.62"
         style="fill:#f8a58d;fill-opacity:1;fill-rule:nonzero;stroke:none"
         id="path468" />
      <path
         d="m 1031.66,2555.76 100.53,-303.73 -220.038,-86.97 c 0,0 -114.797,298.26 30.582,371.28 l 88.926,19.42"
         style="fill:#e7e8e5;fill-opacity:1;fill-rule:nonzero;stroke:none"
         id="path470" />
      <path
         d="m 1146.82,2263.87 c -0.11,-0.1 -1.23,0.79 -2.98,2.83 -1.75,2.05 -4.15,5.26 -6.59,9.77 -5.05,9.01 -9.62,23.02 -15.87,39.97 -12.33,34.04 -29.01,81.17 -47.14,133.34 -8.98,26.07 -17.53,50.9 -25.36,73.62 -7.75,22.6 -13.83,43.52 -25.37,57.1 -11.16,13.8 -26.334,18.17 -35.951,17.87 -9.946,-0.35 -14.676,-4.17 -14.911,-3.58 -0.078,0.12 0.997,1.06 3.372,2.38 2.375,1.3 6.226,2.74 11.425,3.22 10.168,0.96 26.535,-3.06 38.875,-17.51 12.6,-14.14 19.13,-35.59 27.1,-57.9 7.94,-22.68 16.63,-47.47 25.75,-73.49 18.12,-52.17 34.25,-99.5 45.68,-133.85 5.83,-17.14 9.86,-31.25 14.21,-40.25 4.25,-9.08 8.13,-13.22 7.76,-13.52"
         style="fill:#17282f;fill-opacity:1;fill-rule:nonzero;stroke:none"
         id="path472" />
      <path
         d="m 1142.15,2258.2 c 0.16,-0.33 -2.81,-2.17 -8.33,-5.23 -5.51,-3.08 -13.6,-7.28 -23.7,-12.29 -20.2,-10.03 -48.52,-23.04 -80.43,-35.92 -31.936,-12.87 -61.366,-23.16 -82.858,-29.95 -10.754,-3.4 -19.496,-5.99 -25.598,-7.6 -6.097,-1.62 -9.515,-2.35 -9.621,-2.01 -0.23,0.72 12.883,5.42 34.032,13.1 21.148,7.66 50.269,18.46 82.095,31.29 31.8,12.84 60.26,25.27 80.82,34.43 20.54,9.14 33.25,14.85 33.59,14.18"
         style="fill:#17282f;fill-opacity:1;fill-rule:nonzero;stroke:none"
         id="path474" />
      <path
         d="m 948.262,2176.25 c -1.336,-0.53 -6.41,9.16 -11.328,21.63 -4.922,12.48 -7.829,23.03 -6.489,23.55 1.336,0.53 6.41,-9.16 11.332,-21.63 4.918,-12.48 7.825,-23.03 6.485,-23.55"
         style="fill:#17282f;fill-opacity:1;fill-rule:nonzero;stroke:none"
         id="path476" />
      <path
         d="m 994.703,2194.11 c -1.226,-0.68 -7.316,8.11 -11.703,20.42 -4.43,12.3 -5.305,22.96 -3.926,23.21 1.449,0.28 4.543,-9.57 8.828,-21.45 4.235,-11.89 8.102,-21.48 6.801,-22.18"
         style="fill:#17282f;fill-opacity:1;fill-rule:nonzero;stroke:none"
         id="path478" />
      <path
         d="m 1043.46,2215.23 c -1.19,-0.73 -7.79,8.22 -12.49,20.97 -4.76,12.73 -5.59,23.82 -4.22,24.05 1.45,0.27 4.52,-9.98 9.1,-22.24 4.52,-12.27 8.89,-22.04 7.61,-22.78"
         style="fill:#17282f;fill-opacity:1;fill-rule:nonzero;stroke:none"
         id="path480" />
      <path
         d="m 1095.57,2236.3 c -1.37,-0.43 -5.84,9.94 -9.98,23.17 -4.14,13.23 -6.39,24.3 -5.01,24.73 1.37,0.43 5.84,-9.95 9.98,-23.18 4.14,-13.22 6.38,-24.29 5.01,-24.72"
         style="fill:#17282f;fill-opacity:1;fill-rule:nonzero;stroke:none"
         id="path482" />
      <path
         d="m 1594.15,2211.56 c 0.43,-1.37 -37.5,-14.68 -84.72,-29.71 -47.24,-15.05 -85.87,-26.13 -86.3,-24.76 -0.44,1.37 37.49,14.67 84.72,29.72 47.22,15.04 85.86,26.12 86.3,24.75"
         style="fill:#17282f;fill-opacity:1;fill-rule:nonzero;stroke:none"
         id="path484" />
      <path
         d="m 1460.1,2176.25 c -1.32,-0.56 -5.72,6.78 -9.83,16.4 -4.1,9.63 -6.35,17.89 -5.03,18.46 1.32,0.56 5.72,-6.79 9.82,-16.41 4.11,-9.62 6.36,-17.89 5.04,-18.45"
         style="fill:#17282f;fill-opacity:1;fill-rule:nonzero;stroke:none"
         id="path486" />
      <path
         d="m 1503.16,2185.98 c -1.3,-0.53 -6.05,8.17 -9.24,19.86 -3.22,11.69 -3.56,21.59 -2.17,21.8 1.45,0.22 4.06,-9.06 7.2,-20.43 3.09,-11.37 5.57,-20.69 4.21,-21.23"
         style="fill:#17282f;fill-opacity:1;fill-rule:nonzero;stroke:none"
         id="path488" />
      <path
         d="m 1549.43,2200.79 c -1.41,-0.29 -4.51,9.04 -6.91,20.84 -2.41,11.79 -3.22,21.59 -1.81,21.88 1.41,0.29 4.5,-9.04 6.91,-20.84 2.41,-11.79 3.22,-21.59 1.81,-21.88"
         style="fill:#17282f;fill-opacity:1;fill-rule:nonzero;stroke:none"
         id="path490" />
      <path
         d="m 1092.11,2622.73 c -1.44,0.1 -2.21,5.65 -1.74,12.38 0.48,6.75 2.03,12.13 3.46,12.03 1.44,-0.1 2.22,-5.65 1.74,-12.39 -0.48,-6.74 -2.03,-12.13 -3.46,-12.02"
         style="fill:#17282f;fill-opacity:1;fill-rule:nonzero;stroke:none"
         id="path492" />
      <path
         d="m 1137.71,2620.09 c -1.43,-0.06 -2.82,5.36 -3.09,12.09 -0.27,6.75 0.67,12.26 2.11,12.31 1.43,0.06 2.82,-5.35 3.09,-12.1 0.27,-6.73 -0.67,-12.24 -2.11,-12.3"
         style="fill:#17282f;fill-opacity:1;fill-rule:nonzero;stroke:none"
         id="path494" />
      <path
         d="m 1172.96,2613.99 c -1.44,0.02 -2.56,5.68 -2.51,12.66 0.06,6.98 1.27,12.63 2.71,12.62 1.44,-0.01 2.56,-5.67 2.5,-12.66 -0.05,-6.98 -1.26,-12.63 -2.7,-12.62"
         style="fill:#17282f;fill-opacity:1;fill-rule:nonzero;stroke:none"
         id="path496" />
      <path
         d="m 1220.58,2608.76 c -1.36,-0.37 -4.22,6.12 -4.46,14.7 -0.27,8.57 2.19,15.22 3.56,14.94 1.44,-0.27 1.38,-6.85 1.65,-14.78 0.21,-7.94 0.67,-14.51 -0.75,-14.86"
         style="fill:#17282f;fill-opacity:1;fill-rule:nonzero;stroke:none"
         id="path498" />
      <path
         d="m 1259.78,2608.76 c -1.42,-0.17 -3.38,6.32 -4.36,14.5 -0.98,8.19 -0.61,14.96 0.82,15.13 1.42,0.17 3.38,-6.32 4.36,-14.51 0.97,-8.18 0.61,-14.95 -0.82,-15.12"
         style="fill:#17282f;fill-opacity:1;fill-rule:nonzero;stroke:none"
         id="path500" />
    </g>
  </g>
</svg>
